<?xml version="1.0" standalone="no"?>
<!DOCTYPE svg PUBLIC "-//W3C//DTD SVG 20010904//EN"
 "http://www.w3.org/TR/2001/REC-SVG-20010904/DTD/svg10.dtd">
<svg version="1.0" xmlns="http://www.w3.org/2000/svg"
 width="750.000000pt" height="761.000000pt" viewBox="0 0 750.000000 761.000000"
 preserveAspectRatio="xMidYMid meet">

<g transform="translate(0.000000,761.000000) scale(0.100000,-0.100000)"
fill="#FFFFFF" stroke="none">
<path d="M3720 6014 c0 -5 -23 -7 -50 -6 -28 2 -58 1 -68 -4 -25 -10 -45 -11
-59 0 -8 5 -18 4 -27 -3 -8 -7 -36 -14 -63 -16 -71 -6 -124 -15 -136 -22 -5
-3 -23 -7 -38 -9 -77 -9 -367 -122 -339 -132 8 -3 17 -8 20 -12 14 -18 81 -50
91 -44 7 4 9 3 6 -3 -10 -15 21 -25 42 -14 13 7 18 6 18 -4 0 -7 -7 -11 -16
-8 -9 2 -7 -1 4 -8 11 -7 45 -32 76 -55 31 -24 60 -40 63 -36 4 3 4 -1 0 -11
-6 -16 5 -23 31 -17 6 1 7 -2 3 -6 -8 -7 50 -79 63 -79 4 0 11 -4 16 -9 5 -5
3 -6 -4 -2 -7 4 -13 3 -13 -3 0 -13 80 -77 92 -73 5 1 7 -2 3 -8 -9 -15 54
-88 86 -99 16 -5 29 -17 29 -25 0 -9 20 -35 44 -58 41 -40 47 -43 95 -42 28 1
53 -1 55 -5 2 -3 27 -4 56 -2 39 2 50 6 46 17 -3 8 0 13 7 11 7 -1 11 4 9 11
-1 8 2 11 7 8 15 -10 152 119 266 250 33 38 82 90 109 115 27 25 46 50 43 55
-3 6 3 11 14 11 12 1 32 13 46 27 14 14 28 26 32 27 26 3 43 11 88 38 27 17
53 31 57 31 3 0 15 9 26 20 l20 20 -27 11 c-186 72 -393 129 -536 148 -106 15" />
</g>
</svg>
