<?xml version="1.0" standalone="no"?>
<!DOCTYPE svg PUBLIC "-//W3C//DTD SVG 20010904//EN"
 "http://www.w3.org/TR/2001/REC-SVG-20010904/DTD/svg10.dtd">
<svg version="1.0" xmlns="http://www.w3.org/2000/svg"
 width="750.000000pt" height="761.000000pt" viewBox="0 0 750.000000 761.000000"
 preserveAspectRatio="xMidYMid meet">

<g transform="translate(0.000000,761.000000) scale(0.100000,-0.100000)"
fill="#FFFFFF" stroke="none">
<path d="M3560 7433 c-555 -38 -985 -151 -1441 -379 -1021 -510 -1752 -1493
-1943 -2614 -41 -236 -50 -360 -50 -630 1 -335 24 -536 98 -843 125 -517 357
-988 694 -1412 116 -145 400 -432 537 -542 551 -442 1177 -705 1875 -789 178
-22 611 -25 775 -6 1048 121 1940 633 2556 1467 236 319 446 747 555 1129 276
970 142 2010 -368 2857 -165 272 -319 470 -548 700 -495 497 -1089 826 -1767
979 -305 68 -698 102 -973 83z m336 -123 c409 -21 772 -98 1134 -242 656 -260
1220 -717 1617 -1308 321 -477 514 -1021 574 -1615 27 -273 10 -669 -42 -950
-159 -864 -627 -1628 -1319 -2154 -1199 -913 -2845 -959 -4085 -113 -352 240
-687 575 -927 927 -586 860 -755 1935 -463 2946 197 683 614 1304 1181 1757
579 461 1304 728 2054 755 41 2 77 4 80 5 3 1 91 -3 196 -8z"/>
<path d="M3420 7239 c-653 -57 -1306 -322 -1835 -744 -144 -115 -406 -379
-526 -530 -425 -535 -672 -1144 -739 -1825 -13 -135 -14 -506 0 -635 61 -593
239 -1100 558 -1584 203 -308 492 -615 793 -843 506 -382 1108 -616 1749 -678
165 -17 518 -14 690 5 630 69 1216 304 1720 691 667 511 1128 1259 1285 2084
49 261 69 673 46 940 -60 682 -317 1316 -754 1863 -108 135 -376 402 -507 506
-541 428 -1138 675 -1805 746 -151 16 -513 18 -675 4z m670 -40 c781 -82 1494
-423 2051 -979 546 -546 880 -1237 975 -2015 20 -169 23 -570 5 -725 -66 -572
-241 -1067 -535 -1515 -146 -221 -261 -362 -460 -560 -804 -799 -1941 -1139
-3061 -915 -536 108 -1025 339 -1475 697 -121 96 -391 369 -494 498 -291 367
-506 780 -625 1207 -278 997 -100 2041 495 2889 371 529 936 971 1536 1203
335 130 701 208 1068 230 97 5 411 -4 520 -15z"/>
<path d="M3540 7091 c0 -24 5 -30 30 -34 l30 -6 0 -221 c0 -134 -4 -229 -10
-241 -6 -11 -21 -19 -35 -19 -25 0 -31 -13 -19 -44 5 -14 35 -16 225 -16 l218
0 10 38 c23 82 24 99 7 105 -23 9 -38 0 -61 -36 l-20 -32 -98 -3 -97 -3 0 101
0 100 34 0 c81 0 127 -12 137 -36 6 -17 16 -24 34 -24 24 0 25 2 26 73 0 39 2
80 4 90 2 13 -4 17 -26 17 -22 0 -30 -6 -35 -24 -7 -30 -16 -32 -105 -28 l-69
4 0 99 0 100 98 -6 c53 -3 98 -8 100 -13 12 -34 31 -57 47 -57 18 0 20 8 23
66 l3 66 -113 6 c-62 4 -164 7 -225 7 l-113 0 0 -29z"/>
<path d="M3208 7076 c-54 -12 -100 -25 -103 -28 -3 -3 -3 -17 0 -30 5 -19 12
-24 29 -21 30 6 42 -11 60 -90 25 -108 32 -99 -105 -130 -67 -15 -124 -25
-127 -23 -9 10 -32 121 -32 158 0 32 4 39 26 44 17 4 23 11 20 21 -3 8 -6 22
-6 30 0 11 -7 14 -22 10 -13 -3 -67 -15 -121 -27 -96 -21 -98 -23 -95 -48 3
-23 7 -27 30 -24 19 2 30 -4 38 -17 12 -23 88 -362 92 -412 2 -27 -2 -36 -19
-44 -16 -7 -23 -18 -23 -37 0 -16 4 -28 8 -28 10 0 191 39 215 46 13 4 17 14
15 32 -3 23 -7 27 -30 24 -18 -2 -30 3 -36 15 -15 29 -46 172 -39 179 8 8 203
53 232 54 18 0 23 -12 39 -92 18 -87 18 -92 1 -104 -10 -7 -22 -15 -28 -17 -6
-2 -7 -15 -3 -31 5 -19 12 -26 24 -22 9 2 61 14 115 26 96 21 97 22 97 52 0
24 -4 29 -22 28 -51 -4 -45 -18 -103 243 -43 195 -44 214 -9 227 18 7 24 15
20 26 -3 9 -6 20 -6 25 0 13 -22 10 -132 -15z"/>
<path d="M4190 7060 c0 -19 5 -30 14 -30 7 0 19 -7 26 -15 10 -12 3 -56 -34
-226 -26 -117 -52 -219 -58 -226 -7 -8 -22 -13 -34 -10 -17 3 -24 -2 -29 -21
-3 -13 -4 -27 -1 -29 6 -6 394 -92 416 -93 15 0 71 102 70 128 0 22 -51 13
-72 -13 -15 -19 -29 -25 -56 -25 -38 1 -159 24 -168 32 -7 8 37 188 46 188 4
0 40 -7 79 -16 52 -12 71 -20 71 -33 0 -23 12 -37 37 -45 20 -6 22 -1 41 81
11 48 20 88 19 89 -11 7 -57 12 -57 6 0 -4 -6 -16 -13 -26 -13 -17 -17 -17
-90 -1 -42 9 -77 21 -77 25 0 22 33 166 40 173 8 9 95 -5 157 -24 26 -8 34
-17 39 -45 5 -27 11 -34 29 -34 19 0 24 8 34 61 7 34 10 63 8 65 -4 4 -414 94
-429 94 -5 0 -8 -13 -8 -30z"/>
<path d="M4821 6908 c-7 -18 -5 -26 10 -37 33 -23 34 -20 -81 -286 -68 -159
-74 -168 -110 -160 -26 6 -30 3 -36 -20 -3 -14 -5 -27 -3 -29 18 -15 202 -87
213 -83 23 9 26 46 4 53 -17 5 -19 12 -15 43 2 20 16 62 31 95 21 47 29 57 43
51 118 -48 182 -56 239 -29 106 51 110 211 7 290 -19 15 -84 48 -143 74 -148
66 -148 66 -159 38z m194 -122 c38 -16 75 -68 75 -104 0 -56 -52 -112 -103
-112 -22 0 -78 21 -95 35 -4 4 79 195 85 195 2 0 19 -6 38 -14z"/>
<path d="M2483 6870 c-10 -11 -29 -20 -43 -20 -63 -1 -152 -68 -166 -126 -11
-42 2 -108 27 -147 31 -49 83 -73 197 -91 51 -8 107 -23 125 -33 28 -17 32
-24 32 -63 0 -39 -4 -47 -35 -68 -47 -32 -104 -25 -141 16 -15 16 -28 35 -31
42 -3 10 -9 10 -28 0 -14 -7 -26 -14 -28 -15 -1 -1 16 -41 38 -87 36 -74 44
-85 62 -80 11 3 23 13 25 22 3 13 19 19 60 23 105 11 172 84 173 187 0 106
-69 161 -235 186 -53 8 -109 21 -125 29 -74 38 -37 135 53 135 32 0 46 -6 73
-35 29 -31 37 -34 54 -25 11 6 20 14 20 18 0 22 -66 152 -77 152 -7 0 -21 -9
-30 -20z"/>
<path d="M5623 6481 c-10 -15 -9 -22 2 -31 8 -7 15 -21 15 -31 0 -16 -255
-338 -281 -354 -6 -4 -22 -1 -36 6 -22 12 -27 11 -39 -6 -8 -10 -14 -22 -14
-25 0 -3 41 -39 92 -80 l91 -73 19 23 c17 21 17 25 3 40 -8 9 -15 23 -15 31 0
14 106 149 117 149 3 0 27 -17 54 -37 51 -40 68 -68 50 -86 -17 -17 -13 -35
11 -48 18 -9 24 -8 37 9 111 141 105 132 87 150 -13 14 -20 14 -34 4 -9 -7
-23 -15 -30 -18 -13 -7 -122 72 -122 89 0 5 25 41 55 78 l56 69 59 -47 c65
-50 75 -68 61 -106 -8 -20 -6 -28 8 -41 17 -16 21 -14 61 34 23 27 40 54 38
59 -5 15 -308 261 -321 261 -7 0 -18 -9 -24 -19z"/>
<path d="M1702 6409 c-50 -44 -92 -83 -92 -87 1 -21 28 -41 49 -35 21 5 22 5
15 -108 -4 -63 -9 -116 -11 -119 -3 -3 -27 20 -54 50 -48 54 -59 86 -38 107 8
8 7 17 -3 32 -7 11 -16 21 -19 21 -9 0 -179 -151 -179 -160 0 -4 8 -14 18 -23
14 -13 20 -13 35 -2 11 8 26 11 34 8 18 -7 303 -331 303 -346 0 -6 -8 -19 -17
-29 -16 -18 -16 -20 3 -39 l20 -20 87 76 c48 42 87 80 87 84 0 4 -6 15 -13 25
-12 16 -16 17 -34 5 -15 -9 -27 -10 -40 -3 -25 12 -108 103 -101 110 3 3 68 0
144 -5 198 -15 183 -18 250 43 58 53 59 54 40 74 -17 20 -20 20 -44 4 -18 -12
-43 -16 -96 -14 -102 4 -298 20 -303 26 -9 9 16 266 28 289 6 12 23 34 37 50
26 27 26 27 6 47 -19 20 -20 20 -112 -61z"/>
<path d="M3720 6014 c0 -5 -23 -7 -50 -6 -28 2 -58 1 -68 -4 -25 -10 -45 -11
-59 0 -8 5 -18 4 -27 -3 -8 -7 -36 -14 -63 -16 -71 -6 -124 -15 -136 -22 -5
-3 -23 -7 -38 -9 -77 -9 -367 -122 -339 -132 8 -3 17 -8 20 -12 14 -18 81 -50
91 -44 7 4 9 3 6 -3 -10 -15 21 -25 42 -14 13 7 18 6 18 -4 0 -7 -7 -11 -16
-8 -9 2 -7 -1 4 -8 11 -7 45 -32 76 -55 31 -24 60 -40 63 -36 4 3 4 -1 0 -11
-6 -16 5 -23 31 -17 6 1 7 -2 3 -6 -8 -7 50 -79 63 -79 4 0 11 -4 16 -9 5 -5
3 -6 -4 -2 -7 4 -13 3 -13 -3 0 -13 80 -77 92 -73 5 1 7 -2 3 -8 -9 -15 54
-88 86 -99 16 -5 29 -17 29 -25 0 -9 20 -35 44 -58 41 -40 47 -43 95 -42 28 1
53 -1 55 -5 2 -3 27 -4 56 -2 39 2 50 6 46 17 -3 8 0 13 7 11 7 -1 11 4 9 11
-1 8 2 11 7 8 15 -10 152 119 266 250 33 38 82 90 109 115 27 25 46 50 43 55
-3 6 3 11 14 11 12 1 32 13 46 27 14 14 28 26 32 27 26 3 43 11 88 38 27 17
53 31 57 31 3 0 15 9 26 20 l20 20 -27 11 c-186 72 -393 129 -536 148 -106 15
-244 14 -253 -1 -5 -7 -11 -5 -21 7 -7 11 -13 15 -13 9z m-200 -650 c0 -8 -19
-13 -24 -6 -3 5 1 9 9 9 8 0 15 -2 15 -3z"/>
<path d="M5975 5875 c-132 -52 -250 -94 -262 -95 -12 0 -34 5 -48 12 -21 9
-29 9 -42 -5 -15 -15 -12 -21 41 -86 31 -39 60 -71 63 -71 4 0 15 7 24 16 14
13 16 21 8 36 -6 11 -7 23 -2 28 18 16 146 61 153 53 3 -4 25 -31 47 -58 l41
-51 -34 -54 c-20 -30 -39 -62 -44 -70 -7 -12 -12 -13 -30 -2 -21 13 -60 2 -60
-17 0 -13 140 -181 151 -181 6 0 17 6 25 14 12 12 12 18 -1 42 -17 33 -27 12
149 299 l135 220 -23 30 c-13 16 -30 31 -37 32 -8 1 -122 -40 -254 -92z m108
-82 c-20 -32 -37 -60 -39 -62 -3 -4 -54 54 -57 65 -2 8 99 53 120 54 7 0 -3
-26 -24 -57z"/>
<path d="M1192 5928 c-7 -7 -12 -21 -12 -32 0 -10 -27 -48 -60 -82 -76 -79
-101 -132 -101 -219 -1 -100 23 -159 95 -231 165 -164 401 -129 494 75 31 68
34 146 8 215 -18 46 -20 48 -49 42 -40 -8 -40 -8 -22 -42 23 -45 29 -92 15
-137 -17 -59 -45 -94 -93 -118 -106 -55 -294 28 -353 156 -29 60 -29 87 -5
141 39 86 112 120 201 94 29 -8 37 -7 48 7 6 9 12 20 12 24 0 7 -153 119 -162
119 -2 0 -9 -5 -16 -12z"/>
<path d="M2754 5821 c3 -4 24 -11 47 -14 23 -3 45 -11 49 -17 4 -7 24 -12 44
-13 27 -1 35 -5 31 -15 -4 -11 1 -13 19 -8 14 3 27 2 31 -4 3 -5 24 -14 46
-20 26 -7 44 -19 50 -34 8 -16 17 -22 30 -19 10 3 19 0 19 -6 0 -6 7 -11 15
-11 10 0 15 -7 13 -17 -2 -10 4 -18 12 -19 8 0 21 -2 28 -2 7 -1 12 -16 12
-37 0 -34 13 -47 23 -22 3 6 6 2 6 -10 1 -27 21 -31 21 -5 1 15 2 15 15 -2 16
-21 20 -66 6 -66 -4 0 -6 -11 -4 -24 3 -12 0 -40 -5 -60 -8 -28 -8 -36 1 -33
6 2 15 23 19 47 10 56 25 71 20 20 -3 -25 0 -40 7 -40 6 0 11 -8 12 -17 0 -11
7 -3 16 17 8 19 16 37 18 38 5 5 85 -70 96 -90 6 -12 6 -25 -1 -37 -6 -12 -6
-22 -1 -26 5 -3 12 4 16 15 4 11 10 18 14 15 13 -7 -14 -143 -33 -163 -9 -10
-16 -27 -16 -37 0 -13 8 -7 30 20 17 21 30 33 30 28 0 -6 -8 -21 -19 -34 -10
-13 -21 -34 -25 -46 -4 -13 -12 -23 -17 -23 -5 0 -9 -6 -9 -13 0 -20 -28 -73
-45 -87 -8 -7 -15 -19 -15 -27 0 -8 -4 -11 -10 -8 -5 3 -10 16 -10 28 -1 20
-4 18 -33 -14 -29 -34 -65 -59 -83 -59 -3 0 10 18 30 40 20 22 36 45 36 50 0
14 -47 -17 -54 -35 -8 -22 -121 -75 -158 -75 -23 0 -29 3 -19 9 8 5 19 7 25 5
6 -2 18 1 26 6 13 9 13 12 -3 24 -10 8 -28 11 -40 8 -20 -5 -21 -4 -8 12 8 10
36 28 61 41 25 13 52 31 59 39 12 14 10 15 -20 10 -19 -4 -42 -15 -52 -25 -19
-20 -64 -35 -74 -25 -20 20 -10 44 25 60 44 21 129 92 120 102 -7 6 -63 -22
-87 -44 -17 -16 -56 -32 -79 -32 -11 0 -4 8 17 21 18 11 31 22 29 24 -5 5 -64
-16 -96 -33 -18 -11 -26 -11 -38 -1 -21 17 -17 25 16 39 51 21 49 34 -4 27
-43 -6 -46 -5 -32 9 9 8 16 20 16 25 0 5 12 14 26 19 14 6 24 16 21 23 -2 6
10 21 27 31 18 11 26 21 19 23 -7 3 -27 -6 -44 -18 -27 -19 -35 -20 -51 -10
-24 15 -78 -3 -78 -25 0 -8 -5 -14 -11 -14 -5 0 -7 5 -3 12 4 6 -1 17 -11 25
-18 13 -18 13 1 13 10 0 26 5 34 11 11 8 6 9 -22 5 -22 -3 -38 -1 -38 5 0 6
-4 7 -10 4 -15 -9 -12 4 5 21 8 9 19 12 25 9 5 -3 10 -2 10 3 0 17 -11 20 -48
11 -45 -10 -49 -6 -22 21 11 11 18 26 14 32 -4 7 -13 2 -25 -13 -16 -21 -20
-22 -43 -10 -22 12 -25 19 -21 53 5 40 -4 48 -25 23 -7 -8 -19 -15 -27 -15
-13 0 -13 3 -3 15 10 12 10 15 -4 15 -9 0 -16 5 -16 10 0 14 -34 12 -48 -2
-17 -17 -34 8 -26 37 5 17 3 17 -14 -4 -13 -17 -21 -20 -27 -12 -6 11 19 40
36 41 4 0 9 7 13 15 4 12 -4 11 -47 -5 -29 -11 -44 -13 -34 -6 21 16 21 22 1
30 -8 3 -23 -1 -31 -10 -12 -12 -18 -13 -23 -3 -5 6 -16 9 -25 5 -13 -4 -16
-2 -11 9 4 12 -2 15 -30 15 -32 0 -34 2 -28 25 6 25 -4 33 -22 16 -5 -5 -19
-12 -31 -16 -17 -5 -23 -2 -23 9 0 22 -21 20 -27 -3 -3 -10 -15 -21 -27 -23
-19 -4 -22 -1 -18 19 4 24 -13 33 -20 11 -3 -9 -10 -8 -22 5 -12 12 -25 15
-40 11 -29 -9 -33 -14 -17 -23 9 -6 7 -10 -8 -14 -18 -4 -20 -2 -14 21 6 26 5
27 -14 10 -11 -10 -25 -18 -31 -18 -6 0 -9 -7 -6 -15 4 -10 0 -15 -15 -15 -12
0 -21 -6 -21 -14 0 -24 -43 -28 -60 -5 -9 11 -19 17 -23 13 -4 -4 -2 -13 4
-20 16 -20 1 -51 -26 -57 -14 -2 -25 0 -25 4 0 5 5 9 10 9 6 0 10 5 10 12 0
16 -38 -20 -46 -44 -3 -10 -17 -31 -30 -45 -19 -20 -22 -29 -12 -36 10 -7 10
-10 1 -14 -7 -2 -13 -13 -13 -23 0 -10 -9 -21 -19 -25 -13 -4 -18 -12 -14 -21
3 -9 0 -14 -8 -12 -10 2 -15 -9 -17 -33 -4 -49 28 -100 91 -146 29 -21 54 -40
57 -43 3 -3 21 -14 40 -24 19 -11 55 -36 80 -56 25 -20 64 -50 88 -65 23 -15
41 -30 39 -32 -7 -7 -77 27 -77 38 0 5 -5 7 -11 4 -5 -4 -20 1 -31 12 -20 16
-21 17 -15 1 8 -23 6 -22 -38 3 -37 22 -43 39 -6 19 13 -7 21 -7 21 -1 0 6 -9
15 -20 21 -11 6 -19 16 -17 22 1 7 -7 14 -18 16 -10 2 -49 24 -85 48 -62 40
-87 72 -104 127 -11 37 -24 12 -59 -115 -50 -183 -60 -234 -54 -280 3 -23 0
-53 -9 -73 -8 -19 -14 -64 -14 -99 0 -36 -5 -88 -11 -117 -8 -38 -8 -58 0 -76
8 -18 8 -36 1 -64 -25 -91 33 -482 101 -684 34 -99 135 -296 183 -357 53 -66
171 -153 230 -169 57 -16 173 -5 205 19 46 34 60 78 66 210 5 82 3 122 -4 122
-6 0 -7 -7 -4 -17 4 -10 2 -14 -4 -10 -6 4 -13 21 -16 39 -14 81 -21 103 -34
117 -9 9 -13 25 -9 42 4 24 3 27 -12 22 -15 -6 -15 -5 -3 10 12 15 11 17 -3
17 -8 0 -22 15 -30 34 -7 18 -31 51 -51 72 -114 120 -171 174 -182 174 -7 0
-13 6 -13 13 0 8 -15 13 -42 14 -23 1 -45 7 -49 14 -4 8 -25 10 -57 7 -45 -4
-50 -3 -42 11 4 9 26 27 49 41 22 14 41 30 41 37 0 7 18 17 40 23 40 11 63 30
36 30 -27 0 -106 -24 -106 -32 0 -4 -7 -8 -15 -8 -26 0 -16 14 25 38 39 22 40
23 24 47 -16 24 -15 25 12 36 16 6 41 9 55 7 24 -4 25 -2 15 14 -14 23 -23 23
-61 0 -18 -12 -38 -16 -50 -12 -16 6 -14 9 16 19 52 20 16 25 -41 6 -27 -9
-56 -26 -64 -37 -14 -19 -34 -9 -21 12 7 12 92 50 111 50 8 0 14 5 14 10 0 14
-31 12 -60 -5 -47 -27 -45 -15 2 15 27 17 52 30 56 30 5 0 26 9 48 20 37 18
38 19 12 20 -41 0 -34 18 10 25 70 12 69 11 48 20 -11 5 -41 4 -68 -2 -52 -10
-59 -4 -28 27 18 18 28 19 88 14 37 -4 91 -6 121 -6 32 0 49 -3 41 -8 -19 -12
-4 -40 22 -40 13 0 30 -5 38 -11 11 -7 5 -8 -22 -3 -26 4 -38 3 -38 -6 0 -14
21 -35 38 -36 34 -3 37 -4 22 -14 -13 -8 -12 -11 5 -24 20 -15 20 -15 -2 -16
-16 0 -23 -6 -23 -20 0 -23 -4 -24 -30 -10 -10 6 -21 6 -24 1 -3 -4 6 -13 19
-19 14 -7 25 -16 25 -21 0 -5 10 -11 22 -13 19 -3 22 -9 23 -48 0 -25 4 -52
10 -60 18 -27 34 -60 29 -60 -7 0 -47 24 -67 39 -9 8 -20 11 -25 7 -4 -4 12
-25 36 -47 42 -40 56 -79 26 -79 -8 0 -12 -4 -9 -10 9 -14 -8 -13 -23 2 -26
26 -19 -1 9 -36 31 -37 37 -64 39 -168 0 -66 17 -41 23 35 4 39 11 110 17 157
6 47 14 132 19 190 6 80 19 144 55 265 26 88 52 162 57 163 5 2 9 9 9 15 0 6
18 48 41 92 35 71 46 84 92 110 37 20 67 29 107 31 48 2 65 -3 137 -42 46 -24
87 -44 92 -44 13 0 114 -101 107 -107 -3 -4 -25 7 -49 24 -93 66 -238 97 -349
74 -69 -15 -92 -34 -85 -70 15 -72 53 -127 169 -244 87 -87 153 -119 260 -125
75 -4 78 -6 78 -29 0 -32 17 -63 35 -63 8 0 15 -9 15 -19 0 -11 7 -26 15 -34
12 -12 12 -21 4 -47 -6 -17 -9 -50 -6 -72 4 -28 -1 -57 -14 -90 -10 -27 -19
-60 -19 -74 0 -15 -11 -47 -24 -73 -27 -51 -51 -145 -41 -160 3 -6 -3 -19 -15
-31 -24 -24 -26 -40 -5 -40 8 0 15 -2 15 -3 0 -2 -31 -36 -70 -74 -38 -39 -70
-73 -70 -77 0 -3 8 -6 18 -6 15 -1 15 -2 -3 -16 -11 -8 -28 -21 -37 -28 -9 -8
-27 -20 -40 -27 -43 -23 -65 -66 -27 -54 20 7 20 6 5 -23 -8 -16 -27 -43 -41
-60 -14 -16 -25 -33 -25 -37 0 -12 -28 -35 -44 -35 -9 0 -16 -6 -16 -12 0 -8
-4 -7 -10 3 -11 18 -2 59 13 59 13 0 67 57 67 70 0 6 5 8 12 4 8 -5 9 -2 5 10
-4 10 -7 21 -7 24 0 4 -5 0 -10 -8 -5 -8 -10 -10 -10 -5 0 6 18 31 40 55 22
24 41 49 42 55 0 5 2 17 2 25 1 8 9 14 19 12 9 -2 17 3 17 10 0 16 38 52 64
61 12 5 17 14 13 28 -4 15 1 22 17 29 20 7 43 59 33 74 -1 1 3 9 10 17 9 12
25 82 24 114 0 6 7 17 15 26 8 9 12 23 9 32 -4 8 -2 18 4 22 7 4 9 -1 5 -12
-3 -10 2 -5 11 10 9 16 14 34 12 40 -2 7 7 38 20 71 16 41 21 70 17 95 -3 20
-1 48 5 63 12 32 1 58 -42 100 -21 21 -26 34 -21 52 5 23 4 24 -68 27 -111 6
-190 48 -298 159 -93 95 -131 158 -138 231 -4 41 -1 49 19 62 28 17 93 31 128
28 13 -2 21 1 17 7 -5 9 119 -9 159 -23 18 -7 18 -6 -2 9 -73 55 -169 78 -228
56 -48 -18 -130 -116 -119 -143 3 -8 1 -18 -5 -22 -7 -4 -8 1 -4 12 3 10 3 16
0 13 -14 -13 -68 -163 -63 -176 3 -8 2 -13 -3 -10 -5 3 -11 -7 -14 -22 -3 -15
-9 -36 -13 -46 -6 -15 -4 -17 7 -11 11 7 12 6 2 -6 -6 -8 -23 -45 -38 -84 -22
-57 -29 -96 -36 -215 -5 -80 -12 -158 -15 -175 -4 -16 -8 -61 -9 -99 -4 -71 7
-111 57 -216 19 -38 22 -65 24 -183 2 -77 5 -141 8 -145 3 -3 1 -11 -5 -19 -6
-7 -9 -22 -6 -34 3 -12 0 -22 -8 -25 -7 -3 -16 -17 -20 -31 -8 -35 22 -76 140
-192 91 -89 95 -92 104 -70 5 14 5 28 0 33 -15 16 -10 45 9 55 14 7 18 18 14
42 -3 24 -1 30 9 27 17 -6 39 15 40 39 0 10 3 13 6 6 7 -19 27 -16 40 7 7 10
22 24 33 30 36 19 22 -8 -32 -64 -53 -54 -98 -109 -98 -120 0 -4 14 1 31 9 29
16 57 12 31 -3 -6 -5 -18 -38 -26 -75 -7 -38 -21 -76 -30 -86 -9 -10 -16 -24
-16 -32 1 -8 22 10 49 40 48 53 48 53 55 27 4 -15 4 -31 1 -36 -4 -6 -1 -10 4
-10 6 0 11 4 11 9 0 5 3 17 7 27 4 12 3 15 -5 10 -7 -4 -12 -2 -12 3 0 6 7 11
15 11 8 0 15 -4 15 -9 0 -14 -20 -65 -28 -71 -17 -12 -52 -70 -43 -70 6 0 18
12 28 26 15 23 18 24 28 10 7 -9 10 -28 7 -44 l-5 -27 20 25 c11 14 23 35 27
48 8 24 26 30 26 8 0 -7 -7 -33 -15 -56 -8 -23 -15 -46 -15 -51 0 -20 19 -7
39 27 12 20 24 34 27 31 6 -6 -16 -99 -27 -111 -5 -6 -9 -17 -9 -25 0 -23 16
-1 29 39 6 19 23 58 37 85 24 48 25 49 20 15 -2 -19 -7 -43 -11 -52 -4 -11 -3
-18 4 -18 6 0 13 11 17 25 7 29 31 28 25 -1 -9 -39 -5 -143 6 -166 6 -13 14
-39 18 -59 5 -36 35 -77 35 -50 0 13 24 41 35 41 3 0 4 -9 0 -19 -4 -13 1 -24
15 -34 16 -11 19 -21 14 -48 -5 -32 -5 -33 10 -15 9 11 16 27 16 35 1 13 3 13
14 -2 13 -17 15 -16 35 9 18 23 21 24 21 8 1 -23 19 -48 43 -57 9 -3 17 -13
17 -22 0 -8 4 -15 9 -15 5 0 11 -10 13 -22 2 -15 9 -22 21 -22 9 1 17 -2 17
-7 0 -5 -4 -9 -10 -9 -5 0 -10 -7 -10 -16 0 -8 4 -13 9 -10 5 3 12 -4 16 -17
6 -22 7 -21 21 21 2 7 9 10 15 7 8 -5 8 -10 0 -18 -15 -15 -14 -27 3 -27 11 0
13 -10 10 -45 -4 -35 -2 -46 10 -51 9 -3 16 -18 16 -33 1 -72 88 -85 102 -15
3 19 34 42 43 32 3 -3 -1 -22 -9 -42 l-15 -36 30 0 c37 0 70 -29 68 -61 -1
-13 5 -37 14 -53 9 -16 14 -34 11 -38 -3 -5 1 -17 9 -26 23 -26 30 -61 16 -78
-14 -17 -7 -27 20 -29 13 -1 17 4 13 18 -4 17 -3 18 16 6 27 -17 32 -11 39 40
3 23 10 41 14 41 5 0 9 -4 9 -10 0 -5 7 -10 16 -10 8 0 12 5 9 10 -4 6 -2 17
5 25 7 9 8 15 0 20 -5 3 -10 24 -10 47 0 34 2 38 14 29 10 -8 16 -9 21 -1 11
18 25 11 25 -15 0 -14 -4 -25 -10 -25 -14 0 -12 -27 3 -33 10 -4 10 -6 0 -6
-7 -1 -13 -8 -13 -17 0 -10 5 -14 15 -10 13 4 13 2 5 -14 -13 -25 -13 -30 4
-30 9 0 12 -7 9 -21 -3 -12 -11 -18 -19 -15 -8 3 -14 -1 -14 -9 0 -8 3 -15 8
-15 4 0 13 -4 21 -9 11 -7 12 -13 3 -23 -6 -8 -8 -19 -4 -25 6 -9 17 -5 37 13
20 16 26 27 18 30 -8 4 -2 15 18 32 l32 26 -7 97 c-5 78 -4 99 7 106 21 12 31
63 13 63 -9 0 -12 -7 -9 -19 3 -10 0 -22 -7 -26 -8 -5 -10 3 -8 26 2 22 8 34
18 34 17 1 41 -26 34 -37 -3 -5 7 -8 22 -8 23 0 25 2 14 15 -14 17 -8 31 9 20
18 -10 13 -50 -9 -75 -11 -13 -19 -26 -17 -29 1 -3 9 -19 17 -36 8 -16 22 -36
32 -43 9 -7 15 -19 12 -27 -4 -10 0 -12 15 -8 12 3 21 9 21 14 0 5 4 9 9 9 15
0 19 -61 4 -67 -21 -8 -16 -64 6 -70 12 -3 17 -11 14 -19 -7 -18 7 -18 35 2
25 17 29 34 7 34 -8 0 -15 9 -15 20 0 12 -7 20 -17 20 -17 1 -17 1 0 11 11 6
17 22 17 44 0 55 7 63 52 59 22 -2 49 1 60 7 14 8 23 8 31 0 14 -14 44 -14 52
0 4 5 4 21 1 35 -7 26 -42 34 -63 13 -7 -7 -12 -3 -15 15 -5 27 16 38 25 14 3
-7 6 -4 6 7 1 11 4 29 6 40 7 29 -10 52 -27 37 -8 -6 -19 -7 -28 -2 -10 6 -3
10 23 15 20 4 35 11 32 15 -3 5 0 12 6 15 6 4 8 18 4 34 -6 25 -6 25 9 6 15
-19 15 -19 16 7 0 15 -7 31 -16 36 -13 7 -12 11 11 26 15 10 39 18 53 19 22 2
26 -2 24 -19 -2 -13 4 -24 13 -28 23 -9 38 3 32 25 -3 12 0 19 10 19 8 0 11 5
8 11 -4 6 -9 8 -12 5 -3 -3 -11 1 -18 7 -10 9 -10 15 -2 26 9 10 7 16 -8 27
-16 12 -16 14 -2 14 9 0 20 -8 26 -17 5 -10 12 -17 15 -15 3 1 15 2 26 2 15 0
20 -7 20 -25 0 -14 5 -25 10 -25 6 0 10 9 10 19 0 11 5 21 12 23 6 2 8 10 4
16 -5 8 -16 10 -28 6 -18 -5 -18 -2 7 28 17 21 29 50 31 74 2 21 10 44 19 50
8 6 15 25 15 42 0 17 6 32 13 35 9 3 9 9 -1 27 -11 18 -11 24 -1 30 9 6 9 18
1 49 -12 48 -6 81 14 81 10 0 13 -7 9 -22 -3 -13 1 -32 9 -43 16 -21 16 -21
20 28 1 6 8 17 16 24 13 10 11 12 -13 18 -15 4 -27 11 -27 15 0 10 48 22 60
15 5 -3 14 4 20 15 11 21 40 28 40 10 0 -30 38 13 45 52 6 27 15 36 15 15 0
-10 8 -17 20 -17 15 0 20 7 20 25 0 28 12 32 30 10 9 -10 9 -15 1 -15 -6 0
-11 -4 -11 -10 0 -5 13 -10 30 -10 19 0 33 -7 40 -20 6 -12 21 -20 36 -20 32
0 27 20 -9 38 -15 7 -32 23 -38 35 -6 12 -23 32 -38 44 -29 24 -24 41 8 23 34
-18 26 15 -9 40 -42 30 -38 44 5 19 33 -20 35 -20 35 -3 0 10 -19 38 -42 63
-24 24 -35 41 -25 38 13 -5 17 -1 17 18 0 13 -4 27 -10 30 -5 3 -10 16 -10 28
0 12 -14 35 -30 51 -33 32 -42 60 -10 31 19 -18 20 -17 20 1 0 11 -16 37 -35
57 -41 44 -44 57 -10 57 14 0 25 5 25 10 0 10 -5 12 -32 14 -7 1 -25 19 -40
41 -62 89 -127 190 -127 198 -2 17 27 5 37 -15 l11 -23 0 26 c1 17 -9 32 -28
46 -29 22 -81 133 -81 173 0 12 -8 33 -17 47 -10 15 -19 49 -20 76 -1 26 -9
59 -17 72 -9 13 -16 42 -16 64 0 22 -4 50 -9 63 -12 34 18 128 41 128 14 0 18
8 18 39 l0 39 63 5 c34 3 71 8 82 10 11 3 32 6 46 6 16 1 55 23 95 54 75 57
103 85 104 105 0 6 6 12 13 12 37 0 103 102 107 165 4 54 0 62 -27 74 -33 13
-128 22 -149 14 -23 -8 -16 -18 14 -19 15 0 52 -8 82 -16 58 -16 73 -36 48
-65 -9 -12 -9 -15 0 -9 8 5 12 1 12 -13 0 -11 -4 -23 -10 -26 -5 -3 -10 -1
-10 4 0 18 -18 12 -24 -6 -3 -10 -21 -34 -38 -54 -18 -20 -38 -45 -44 -55 -6
-11 -44 -42 -85 -71 -77 -54 -129 -79 -129 -62 0 5 6 9 14 9 8 0 18 5 22 11 4
8 -4 9 -27 5 -30 -5 -28 -3 16 18 37 18 44 25 28 25 -40 2 -25 18 35 36 61 20
102 42 102 56 0 5 -12 6 -27 3 l-28 -7 22 22 c12 11 29 21 38 21 8 0 15 6 15
13 0 7 9 19 20 27 12 8 18 21 15 31 -6 17 19 34 36 23 19 -11 8 19 -13 38 -18
16 -32 18 -73 13 -27 -3 -59 -10 -70 -15 -36 -17 -109 -39 -113 -35 -7 7 61
45 101 56 34 9 54 39 25 39 -45 -1 -137 -33 -184 -64 -31 -21 -58 -35 -61 -32
-3 3 11 25 31 49 28 34 59 55 138 93 125 59 183 65 263 24 45 -23 54 -34 97
-115 25 -50 47 -99 47 -111 1 -11 8 -29 16 -40 8 -10 15 -27 15 -36 0 -9 9
-38 21 -65 11 -26 21 -64 21 -83 0 -19 9 -45 19 -59 16 -20 19 -41 19 -125 0
-55 9 -157 21 -226 11 -69 18 -142 15 -162 -4 -21 -4 -38 -1 -38 12 0 36 74
31 94 -6 24 14 90 32 108 18 18 14 30 -8 23 -11 -4 -20 -2 -20 4 0 6 -6 8 -14
5 -27 -10 -4 45 30 73 19 14 34 31 34 36 0 13 -62 0 -72 -16 -5 -8 -8 -5 -8 8
1 26 20 50 48 59 25 8 26 12 11 55 -14 39 -2 55 51 68 20 5 36 16 38 26 3 13
-1 15 -15 10 -10 -4 -20 -10 -23 -13 -6 -9 -80 -23 -80 -15 0 3 12 10 28 16
25 10 26 12 7 19 -11 4 -24 5 -29 2 -5 -3 -6 0 -2 6 6 11 31 19 110 37 22 5
26 9 17 18 -9 9 -16 9 -31 -1 -24 -14 -70 -16 -70 -2 0 6 5 10 11 10 6 0 24
14 41 30 24 24 27 31 14 36 -22 9 0 29 36 31 37 3 68 31 47 44 -8 5 -23 6 -34
2 -54 -16 -51 -16 -35 -3 11 9 12 13 3 17 -19 7 -15 23 4 16 10 -4 14 -2 9 5
-3 6 -1 14 5 18 6 3 15 0 20 -7 5 -8 9 -9 9 -3 0 31 93 43 145 19 l30 -13 -47
-1 c-66 -1 -67 -16 -2 -18 41 -1 54 2 54 13 0 8 9 14 20 14 16 0 20 -7 21 -32
1 -18 3 -25 6 -15 6 24 40 21 46 -4 5 -17 10 -20 29 -14 40 12 87 15 93 5 4
-6 -8 -10 -24 -10 -22 0 -31 -5 -31 -16 0 -12 -3 -14 -12 -6 -7 5 -47 15 -88
22 -116 18 -150 20 -150 10 0 -6 7 -10 15 -10 21 0 19 -18 -2 -22 -10 -2 15
-14 55 -26 39 -13 72 -28 72 -34 0 -5 -6 -8 -12 -5 -92 35 -128 40 -183 27
-30 -7 -55 -17 -55 -22 0 -5 9 -6 20 -3 11 4 41 8 65 10 55 5 63 -19 13 -34
l-33 -9 33 -1 c17 -1 32 -6 32 -12 0 -5 4 -8 8 -5 15 9 78 -13 107 -38 16 -14
43 -27 61 -30 17 -4 37 -13 44 -20 9 -12 7 -13 -11 -9 -19 5 -17 1 12 -27 30
-28 31 -32 11 -25 -13 4 -33 16 -43 26 -20 20 -59 26 -59 8 0 -5 -4 -8 -8 -5
-5 3 -16 -4 -25 -14 -15 -18 -14 -20 20 -40 19 -11 52 -35 73 -52 33 -28 37
-36 33 -65 -4 -22 -2 -33 7 -33 7 0 10 -7 6 -15 -3 -8 -1 -15 4 -15 5 0 7 -7
4 -15 -9 -22 -24 -18 -24 5 0 11 -20 40 -44 66 -40 41 -46 44 -64 33 -24 -15
-14 -35 25 -50 33 -12 28 -29 -8 -29 -39 0 -159 -32 -159 -42 0 -4 -7 -8 -15
-8 -8 0 -40 -28 -72 -62 -32 -34 -76 -78 -98 -99 -22 -21 -52 -61 -65 -88 -14
-28 -32 -51 -40 -51 -11 0 -12 -2 -3 -8 9 -6 7 -25 -10 -80 -22 -72 -45 -100
-33 -40 4 21 3 29 -3 23 -26 -27 -35 -278 -12 -347 14 -41 68 -94 107 -104 52
-13 157 2 213 31 137 69 270 249 344 465 14 41 33 94 41 117 37 101 67 357 38
329 -2 -3 -13 -1 -23 5 -15 7 -19 6 -19 -6 0 -13 -4 -14 -20 -5 -11 6 -20 15
-20 21 0 6 5 7 10 4 6 -3 10 1 10 10 0 12 4 14 19 5 60 -31 84 11 83 144 0 45
-1 129 -1 188 0 112 -17 267 -31 281 -8 9 -31 -7 -77 -50 -26 -25 -33 -28 -33
-15 0 5 20 22 45 40 25 18 50 43 56 56 13 27 4 96 -12 96 -6 0 -7 -9 -3 -22 6
-20 5 -21 -9 -10 -10 9 -17 10 -22 2 -3 -5 -11 -10 -18 -10 -6 0 3 13 21 29
36 34 38 48 18 123 -42 154 -64 213 -79 210 -12 -2 -14 5 -10 38 4 26 2 40 -6
40 -6 0 -11 11 -11 24 0 14 -5 28 -11 31 -5 4 -15 19 -20 33 -8 21 -12 24 -20
12 -7 -12 -9 -9 -7 10 4 36 -16 40 -23 5 -6 -29 -8 -27 -13 23 -3 26 -68 92
-91 92 -8 0 -37 22 -65 49 -27 27 -50 43 -50 35 0 -8 -4 -14 -10 -14 -5 0 -10
5 -10 11 0 14 -29 43 -37 35 -3 -3 0 -12 7 -21 10 -12 10 -15 -3 -15 -8 0 -18
-6 -21 -12 -5 -10 -7 -10 -12 0 -7 14 -34 16 -34 2 0 -6 -9 -6 -26 0 -32 12
-114 13 -114 1 0 -5 -9 -11 -20 -14 -15 -4 -20 0 -20 13 0 22 -28 34 -46 19
-7 -6 -18 -8 -25 -4 -8 5 -9 1 -4 -14 5 -17 3 -20 -11 -14 -14 5 -16 3 -11
-12 6 -15 5 -16 -8 -5 -12 10 -15 10 -15 -4 0 -15 -2 -15 -26 0 -25 17 -25 17
-18 -9 7 -31 -2 -34 -27 -12 -15 15 -17 14 -23 -10 -4 -15 -12 -25 -19 -22
-16 5 -36 -15 -30 -30 5 -12 -15 -17 -55 -16 -7 1 -11 -5 -8 -13 7 -19 -1 -18
-34 6 -34 24 -46 16 -17 -13 l21 -21 -29 -8 c-17 -4 -34 -3 -39 2 -15 15 -26
12 -26 -6 0 -9 9 -18 20 -21 11 -3 20 -9 20 -14 0 -13 -34 -11 -48 3 -9 9 -12
9 -12 1 0 -7 5 -15 10 -18 24 -15 7 -24 -20 -10 -16 8 -34 15 -40 15 -20 0 -9
-20 20 -35 17 -9 30 -20 30 -26 0 -6 -7 -6 -20 1 -25 13 -82 9 -87 -6 -2 -5
13 -16 32 -24 30 -12 33 -16 21 -28 -11 -12 -18 -11 -47 3 -31 17 -33 16 -46
-1 -12 -17 -14 -17 -43 4 -16 13 -30 19 -30 14 0 -14 43 -50 80 -66 19 -8 33
-16 30 -16 -30 -7 -39 -6 -44 6 -6 16 -36 19 -36 4 0 -5 4 -10 9 -10 5 0 11
-7 15 -15 4 -13 -1 -14 -34 -9 -27 4 -40 3 -40 -5 0 -6 7 -11 15 -11 20 0 65
-22 65 -32 0 -12 -57 -10 -83 5 -12 6 -34 23 -49 36 -14 13 -31 22 -38 19 -14
-4 33 -68 63 -85 21 -12 21 -12 1 -13 -28 0 -100 47 -156 104 -27 26 -48 45
-48 42 0 -19 54 -106 66 -106 8 0 27 -11 42 -25 23 -21 71 -44 130 -61 28 -8
0 -22 -43 -22 -30 0 -45 4 -45 13 0 7 -12 15 -27 18 -16 3 -39 9 -53 13 -22 7
-24 6 -11 -9 7 -9 31 -22 52 -27 38 -10 56 -40 24 -40 -8 0 -15 7 -15 16 0 14
-3 14 -15 4 -20 -16 -14 -35 11 -36 10 -1 30 -2 44 -3 l25 -2 -24 -10 c-13 -5
-32 -7 -42 -4 -11 4 -19 2 -19 -3 0 -20 -65 1 -94 30 -24 25 -30 18 -14 -17 7
-15 32 -37 59 -51 53 -27 76 -51 38 -39 -13 4 -32 14 -41 22 -9 8 -22 12 -28
8 -5 -3 -27 11 -48 32 -43 45 -75 62 -65 35 13 -33 98 -122 118 -122 11 0 27
-5 35 -10 25 -16 -36 -12 -68 4 -27 14 -112 107 -112 123 0 4 -9 14 -20 21
-29 18 -26 -3 5 -40 14 -17 23 -33 20 -37 -9 -8 -55 46 -55 65 0 8 -6 14 -13
14 -7 0 -23 11 -35 25 -21 25 -42 33 -42 17 0 -4 6 -14 13 -22 6 -7 -3 -3 -20
9 -18 12 -33 29 -33 37 0 8 -11 32 -25 52 -14 20 -25 47 -25 61 0 19 -3 21
-14 12 -21 -17 -27 9 -10 47 15 37 30 41 39 12 10 -32 28 -24 22 10 -4 17 -2
30 3 30 6 0 10 -7 10 -15 0 -8 5 -15 11 -15 7 0 8 14 4 41 -6 33 -4 40 6 37 8
-3 16 -20 19 -39 3 -19 11 -35 18 -37 10 -2 12 9 8 48 -4 36 -2 50 7 50 9 0 9
2 0 8 -10 6 -10 12 2 28 14 19 14 19 15 -1 1 -11 7 -33 15 -50 14 -30 14 -30
11 20 -3 52 8 90 25 80 5 -4 9 -19 9 -35 0 -23 3 -27 20 -23 21 6 26 18 12 27
-5 3 -9 24 -10 48 l-2 43 30 -63 c16 -35 30 -69 30 -76 0 -16 59 -80 67 -72 3
3 -1 14 -10 24 -9 10 -23 38 -32 62 -9 25 -22 60 -31 78 -19 42 -11 85 22 106
13 9 24 23 24 32 0 8 5 12 10 9 6 -3 10 1 10 9 0 8 9 17 19 21 11 3 23 14 26
25 3 10 17 25 30 34 14 9 25 21 25 26 0 14 -71 -37 -90 -63 -8 -13 -45 -53
-82 -90 -38 -38 -68 -72 -68 -76 0 -5 -52 -55 -115 -111 -62 -55 -117 -110
-120 -121 -6 -18 -12 -20 -45 -14 -22 4 -49 3 -62 -2 -19 -6 -14 -9 27 -13 42
-4 50 -8 53 -27 2 -13 8 -23 13 -23 5 0 9 -12 9 -28 0 -15 6 -36 13 -47 46
-67 50 -76 33 -69 -12 5 -16 0 -16 -17 0 -18 -3 -20 -12 -11 -18 18 -28 15
-28 -8 0 -11 7 -20 15 -20 8 0 15 -4 15 -10 0 -5 7 -10 16 -10 11 0 13 -6 9
-19 -3 -11 -1 -22 5 -26 5 -3 10 -15 10 -26 0 -10 7 -19 15 -19 9 0 15 -9 15
-24 0 -30 57 -102 87 -110 12 -4 39 -17 59 -31 20 -14 45 -25 54 -25 14 0 17
-6 13 -22 -5 -19 -3 -21 8 -10 18 16 39 15 39 -2 0 -8 6 -16 13 -19 9 -3 9 -7
-1 -19 -26 -32 8 -30 35 1 33 37 71 44 53 10 -19 -35 -1 -34 30 2 16 19 29 30
30 25 0 -6 6 -1 14 9 18 25 55 26 68 2 7 -15 7 -22 -3 -28 -11 -7 -11 -11 -2
-17 8 -5 9 -13 3 -22 -15 -24 -12 -32 10 -25 17 5 20 2 20 -23 0 -16 -7 -35
-15 -42 -8 -7 -15 -16 -15 -21 0 -5 -16 -25 -36 -45 -19 -21 -47 -52 -61 -71
-20 -26 -29 -31 -39 -22 -11 9 -14 8 -14 -5 0 -9 -4 -16 -10 -16 -5 0 -10 20
-10 45 0 32 -5 47 -15 52 -22 8 -28 -2 -15 -26 10 -19 6 -23 -44 -48 -30 -15
-53 -30 -51 -33 3 -4 -8 -13 -23 -20 -24 -12 -25 -14 -7 -18 25 -6 44 -31 40
-54 -2 -10 0 -18 5 -18 20 0 18 -34 -5 -69 -16 -24 -23 -44 -19 -56 6 -15 4
-16 -14 -6 -19 10 -22 9 -22 -5 0 -10 -2 -15 -5 -13 -4 5 6 73 18 126 7 29 -2
34 -33 17 -19 -10 -21 -13 -7 -14 17 0 17 -1 0 -27 -10 -16 -22 -31 -28 -35
-7 -5 -6 -15 3 -30 7 -13 -1 -7 -18 12 -28 32 -31 33 -25 10 7 -25 7 -25 -10
-5 -14 17 -16 18 -11 2 3 -11 0 -20 -10 -24 -12 -4 -8 -14 23 -46 21 -23 30
-35 21 -28 -25 19 -22 3 8 -40 14 -21 24 -46 21 -56 -3 -15 -6 -14 -15 8 -11
28 -46 43 -69 30 -10 -5 -7 -11 14 -21 l28 -14 -32 -4 c-18 -2 -33 -7 -33 -13
0 -5 15 -9 33 -9 24 0 35 -6 43 -25 11 -23 10 -24 -7 -14 -24 12 -26 -6 -2
-19 16 -9 16 -11 0 -27 -16 -16 -19 -15 -53 14 -40 36 -49 39 -35 12 11 -19
60 -64 101 -93 25 -17 25 -17 3 -17 -13 -1 -23 3 -23 8 0 12 -39 21 -46 10 -3
-5 -13 -5 -24 1 -24 13 -30 13 -30 0 0 -6 11 -16 25 -22 14 -6 25 -15 25 -20
0 -5 12 -20 28 -33 27 -24 25 -48 -3 -25 -25 20 -19 -9 8 -38 12 -14 17 -22
10 -19 -6 4 -18 4 -27 1 -18 -7 -11 -63 12 -79 27 -21 82 -212 82 -288 0 -121
-74 -208 -199 -236 -24 -5 -39 -5 -35 0 7 12 -3 11 -25 -3 -27 -16 -48 -4 -49
29 0 40 19 72 75 124 93 89 113 119 113 168 0 21 -5 31 -15 31 -8 0 -15 -4
-15 -10 0 -5 -16 -10 -35 -10 -26 0 -45 -9 -74 -35 -21 -19 -43 -35 -49 -35
-6 0 -13 -8 -15 -17 -4 -15 -6 -14 -12 5 -4 13 -13 21 -20 19 -6 -3 -31 10
-55 29 -29 23 -53 34 -76 34 -19 0 -34 5 -34 10 0 6 -7 10 -16 10 -11 0 -14
-5 -10 -16 3 -9 6 -27 6 -40 0 -17 23 -48 73 -100 99 -103 130 -171 87 -194
-31 -17 -100 -2 -166 34 -77 42 -114 107 -114 200 0 62 40 230 59 249 16 16
13 27 -5 20 -12 -4 -14 0 -8 23 6 30 54 79 87 90 15 5 17 12 11 37 -3 18 -12
39 -20 48 -11 12 -11 18 -2 27 9 9 8 12 -4 12 -8 0 -21 -7 -28 -15 -16 -19
-30 -19 -30 0 0 8 11 17 25 21 14 3 25 11 25 16 0 6 -11 7 -26 4 -17 -5 -23
-3 -19 4 3 5 13 10 22 10 12 0 13 3 4 14 -10 11 -8 17 6 25 14 9 10 10 -21 5
l-38 -7 17 27 c10 14 24 26 31 26 8 0 14 5 14 10 0 6 -4 10 -10 10 -5 0 -10 9
-10 20 0 16 -5 18 -37 14 l-38 -4 40 41 40 41 -30 -4 c-26 -3 -30 0 -31 19 -2
17 9 31 34 48 20 14 30 25 22 26 -8 0 8 11 35 24 46 22 48 24 20 24 -16 0 -49
-8 -72 -19 -24 -10 -43 -15 -43 -9 0 5 6 12 14 15 27 10 27 34 1 46 -18 8 -22
14 -13 19 16 10 3 24 -30 34 -24 7 -24 6 -18 -50 6 -56 -5 -95 -25 -95 -6 0
-7 5 -4 10 3 6 -2 18 -11 28 -16 16 -16 17 -1 20 9 2 17 7 17 10 -1 15 -50 66
-56 59 -4 -4 0 -15 9 -25 23 -25 21 -32 -7 -32 -28 0 -39 21 -30 56 5 18 11
23 23 18 9 -3 25 -9 36 -11 16 -5 18 -3 8 8 -18 18 -16 34 1 20 10 -8 16 -9
21 -1 3 5 3 10 0 10 -4 0 0 7 9 15 23 24 13 65 -25 96 -38 30 -34 49 7 30 30
-13 50 -5 34 14 -9 11 -7 12 9 8 34 -9 24 6 -15 22 -45 18 -45 18 -38 0 4 -8
1 -15 -5 -15 -7 0 -14 7 -17 15 -4 8 -26 29 -51 45 -36 24 -44 27 -41 13 2
-10 12 -22 23 -28 25 -13 33 -57 8 -48 -10 4 -14 2 -10 -4 4 -6 -4 -13 -18
-16 -14 -2 -28 0 -31 5 -3 5 -17 13 -30 18 -13 5 -24 16 -24 24 0 13 -28 36
-44 36 -15 0 -4 -19 14 -25 11 -4 18 -10 15 -15 -3 -5 0 -12 5 -15 21 -13 51
-115 35 -115 -4 0 -18 9 -32 20 -14 11 -30 17 -35 14 -6 -4 -27 -8 -48 -9 -28
-2 -40 1 -45 13 -3 9 -1 18 4 20 6 2 11 9 11 16 0 16 46 14 78 -3 12 -6 22 -9
22 -5 0 19 -64 104 -79 105 -9 0 -11 3 -5 5 13 5 -7 55 -34 87 -21 24 -5 93
21 89 12 -2 17 4 18 20 1 18 2 19 6 5 3 -10 11 -16 18 -13 7 2 16 -2 19 -10 3
-8 9 -14 13 -13 19 3 47 -3 36 -8 -7 -2 -13 -9 -13 -14 0 -4 6 -6 14 -3 7 3
21 -6 30 -20 9 -14 20 -25 25 -23 5 1 16 -7 24 -18 9 -11 18 -17 22 -13 4 4
-8 25 -26 47 -40 50 -33 65 8 18 30 -34 123 -96 123 -81 0 4 -18 23 -40 41
-22 19 -45 44 -51 55 -9 18 -8 19 10 13 23 -7 27 4 9 24 -11 11 -9 11 10 2 18
-9 22 -9 22 2 0 8 14 17 30 21 17 3 44 19 60 36 16 16 36 30 45 30 8 0 15 5
15 10 0 6 6 10 13 10 16 0 53 57 62 95 3 17 16 40 27 52 12 13 19 26 15 29 -8
9 21 64 33 64 6 0 10 7 10 16 0 8 -4 12 -10 9 -5 -3 -10 -1 -10 5 0 6 -4 8
-10 5 -16 -10 -12 7 10 43 11 18 20 49 20 70 0 49 10 83 22 76 5 -3 15 0 23 6
9 7 26 9 41 6 19 -5 25 -3 22 6 -3 8 -23 13 -55 13 -43 0 -54 4 -72 27 -12 15
-30 30 -41 33 -11 4 -20 15 -20 26 0 12 -14 28 -34 40 -18 10 -54 46 -80 79
-26 32 -60 68 -76 80 -16 11 -39 39 -51 60 -13 22 -26 40 -31 40 -4 0 -30 22
-56 48 -49 49 -167 126 -232 152 -19 8 -37 17 -40 20 -5 7 -151 40 -176 40 -8
0 -13 -4 -10 -9z m753 -593 c-2 -13 -4 -5 -4 17 -1 22 1 32 4 23 2 -10 2 -28
0 -40z m61 -10 c7 -7 12 -20 12 -30 0 -10 4 -18 9 -18 15 0 23 -37 12 -57 -5
-10 -20 -39 -32 -65 -13 -27 -27 -48 -31 -48 -5 0 -8 -7 -8 -15 0 -8 -9 -19
-20 -25 -15 -8 -20 -8 -20 1 0 7 -8 5 -20 -6 -23 -21 -28 -3 -7 25 6 9 -1 2
-16 -14 -26 -29 -67 -96 -67 -112 0 -3 7 -1 16 7 13 11 14 9 9 -14 -5 -17 -3
-27 4 -27 18 0 12 -39 -9 -60 -11 -11 -20 -23 -20 -27 0 -5 -18 -24 -39 -45
-62 -58 -104 -75 -94 -38 5 21 33 28 33 9 0 -5 20 10 45 35 25 26 45 55 45 65
0 11 6 21 13 24 6 2 9 8 5 12 -4 4 -22 -8 -40 -27 -61 -65 -106 -88 -171 -88
-93 0 -61 18 56 32 9 1 17 5 17 8 0 3 15 11 33 19 44 20 64 51 32 51 -11 0
-10 5 6 24 13 14 28 22 36 19 11 -5 14 -1 9 13 -4 12 6 40 28 75 19 31 37 67
41 80 4 12 24 44 45 70 32 40 67 127 62 152 -3 11 13 8 26 -5z m-1540 -158
c57 -42 92 -80 74 -80 -5 0 -22 12 -37 26 -15 14 -44 36 -64 49 -42 26 -141
136 -141 156 0 7 24 -15 54 -48 30 -33 82 -79 114 -103z m1469 118 c-3 -8 -6
-5 -6 6 -1 11 2 17 5 13 3 -3 4 -12 1 -19z m2268 -84 c-17 -26 -71 -64 -92
-64 -22 0 -14 28 10 34 12 3 38 21 57 41 37 38 53 31 25 -11z m-3665 -16 c21
-28 21 -30 4 -23 -10 4 -29 10 -41 12 -12 3 -30 14 -39 24 -16 17 -16 19 -1
19 10 0 17 -4 17 -10 0 -5 5 -10 11 -10 6 0 9 7 6 14 -10 25 18 8 43 -26z
m-338 -57 c8 -11 26 -25 41 -32 15 -7 27 -16 27 -21 0 -25 -67 21 -110 76 -14
18 -14 19 7 8 12 -7 28 -21 35 -31z m4034 -9 c-19 -20 -38 -34 -41 -30 -9 9
55 79 66 72 5 -3 -6 -22 -25 -42z m-336 20 c0 -9 -25 -33 -47 -46 -20 -11 -15
8 7 32 21 22 40 29 40 14z m186 -27 c-3 -8 -14 -15 -24 -15 -11 0 -26 -7 -33
-16 -12 -15 -11 -16 11 -9 49 15 91 35 106 50 9 8 21 15 27 15 23 -1 -78 -79
-102 -80 -13 0 -36 -11 -53 -25 -16 -14 -41 -25 -54 -25 -14 0 -39 -7 -55 -16
-17 -8 -36 -13 -42 -11 -7 3 3 10 21 17 17 7 32 16 32 21 0 14 66 40 84 33 9
-3 16 -1 16 5 0 6 -5 11 -10 11 -15 0 22 49 36 50 6 0 18 7 25 16 15 18 25 4
15 -21z m193 -12 c-12 -15 -12 -16 4 -10 23 9 22 -5 -3 -26 -17 -14 -20 -14
-20 -2 0 19 -3 19 -51 -6 -23 -11 -43 -18 -46 -16 -2 3 16 15 42 28 25 13 51
29 57 36 6 7 15 13 20 13 6 0 4 -8 -3 -17z m-4050 -60 c2 -2 1 -6 -2 -10 -10
-10 -87 30 -87 45 0 11 46 -7 89 -35z m3941 33 c0 -2 -11 -11 -25 -20 -21 -14
-25 -14 -25 -2 0 8 8 17 18 19 25 7 32 7 32 3z m-1790 -41 c0 -9 6 -18 14 -21
19 -7 96 -126 96 -147 0 -26 -29 -20 -40 7 -5 13 -20 35 -34 49 -14 15 -26 32
-26 39 0 7 -10 24 -23 38 -13 14 -22 31 -19 38 5 17 32 15 32 -3z m-601 -28
c-1 -15 -68 -72 -76 -64 -3 3 9 20 26 37 17 17 31 36 31 41 0 6 5 7 10 4 6 -3
10 -12 9 -18z m2541 4 c0 -21 -22 -33 -45 -25 -21 9 -19 19 8 32 32 15 37 14
37 -7z m-1835 -16 c5 -10 26 -35 46 -55 20 -20 44 -49 54 -63 9 -15 26 -27 37
-27 24 0 58 -18 58 -30 0 -17 -46 -11 -71 9 -13 10 -33 21 -45 25 -12 3 -26
17 -31 29 -6 13 -34 48 -62 79 -50 55 -51 57 -24 54 15 -2 32 -11 38 -21z
m-556 -2 c-18 -25 -57 -63 -64 -63 -15 0 -1 26 28 51 36 32 57 38 36 12z
m2291 -12 c0 -14 -66 -42 -120 -50 -77 -12 -62 11 23 36 84 24 97 26 97 14z
m-2250 -30 c0 -16 -10 -39 -24 -54 -14 -15 -29 -33 -33 -41 -6 -11 -13 -12
-23 -5 -13 8 -13 11 0 22 18 15 54 66 63 90 10 26 17 21 17 -12z m2065 20
c-36 -15 -105 -28 -105 -21 0 4 21 12 48 18 59 12 84 13 57 3z m-3627 -31 c2
-6 12 -10 23 -10 10 0 19 -7 19 -15 0 -12 -8 -11 -47 6 -64 27 -79 44 -33 35
19 -4 37 -11 38 -16z m1202 0 c-6 -12 -21 -20 -35 -20 -32 0 -31 6 3 24 37 21
45 20 32 -4z m85 -20 c6 -10 -35 -33 -77 -44 -15 -3 -30 -2 -33 4 -4 6 6 10
23 10 16 0 37 9 47 20 20 22 31 25 40 10z m2285 -5 c-47 -18 -55 -18 -40 0 7
8 27 15 44 14 l31 -1 -35 -13z m-88 -28 c-12 -6 -25 -7 -29 -3 -11 10 18 25
35 18 13 -4 11 -8 -6 -15z m-3542 3 c53 -7 52 -7 -32 -9 -53 0 -88 3 -88 9 0
11 40 11 120 0z m179 1 c23 -15 -3 -20 -34 -6 -29 13 -29 13 -5 14 14 0 31 -3
39 -8z m3516 0 c-6 -6 -30 -14 -54 -20 -31 -7 -40 -6 -33 1 6 6 28 14 49 18
21 4 40 8 43 9 2 0 0 -3 -5 -8z m-3845 -11 c-14 -4 -32 -8 -40 -9 -13 -1 -13
0 0 9 8 5 26 9 40 9 l25 -1 -25 -8z m4020 2 c0 -5 -13 -9 -30 -9 -16 0 -30 4
-30 9 0 4 14 8 30 8 17 0 30 -4 30 -8z m-3043 -54 c55 -20 113 -62 113 -81 0
-5 -30 7 -66 27 -36 20 -77 35 -92 34 -15 -1 -36 2 -47 5 -33 11 -77 -6 -87
-33 -7 -19 -6 -22 3 -13 21 21 59 -13 59 -52 0 -18 -3 -35 -7 -38 -5 -2 -2 -2
6 0 28 7 49 -7 43 -29 -4 -15 -2 -19 7 -13 10 5 12 2 7 -11 -4 -15 3 -23 32
-36 20 -9 49 -20 65 -23 15 -4 27 -11 27 -17 0 -5 -10 -7 -22 -4 -19 5 -19 4
3 -7 14 -6 33 -20 43 -29 15 -16 15 -18 2 -18 -9 0 -16 -4 -16 -10 0 -24 -119
67 -189 144 -107 118 -136 189 -83 199 15 4 45 10 67 15 60 14 68 14 132 -10z
m1398 -8 c17 -11 45 -31 63 -44 18 -14 38 -27 45 -29 7 -2 8 -8 4 -13 -4 -4
-16 -3 -25 4 -9 6 -45 28 -79 48 -60 34 -78 54 -50 54 6 0 26 -9 42 -20z m210
-21 c5 -5 -3 -9 -20 -9 -40 0 -75 10 -75 21 0 11 81 0 95 -12z m-2690 -6 c19
-9 35 -20 35 -25 0 -9 -44 7 -73 27 -29 20 -6 19 38 -2z m380 -53 c17 -7 50
-15 74 -18 56 -9 68 -31 14 -27 -31 2 -32 1 -9 -4 16 -3 31 -12 34 -18 5 -17
-13 -16 -49 3 -17 8 -33 13 -36 11 -2 -3 -28 1 -56 9 -62 16 -57 16 -57 5 0
-5 17 -12 38 -16 20 -3 44 -10 52 -15 13 -9 13 -11 0 -21 -11 -8 -12 -12 -2
-16 21 -8 13 -25 -10 -17 -12 3 -52 6 -90 6 -37 -1 -68 3 -68 9 0 5 8 9 18 9
16 1 16 1 -1 11 -13 8 -26 8 -45 0 -37 -16 -95 -22 -102 -11 -6 10 -100 -8
-100 -19 0 -4 -16 -7 -35 -7 -19 0 -35 1 -35 2 0 9 145 46 190 49 68 4 110 14
110 27 0 5 6 8 13 7 34 -4 49 4 17 11 l-35 7 33 2 c17 0 32 6 32 11 0 20 -52
30 -121 25 -43 -4 -69 -2 -69 4 0 24 221 10 295 -19z m3768 28 c-2 -5 -15 -8
-28 -8 -13 0 -36 -5 -52 -11 -15 -6 -77 -13 -137 -15 -95 -4 -135 -11 -246
-39 l-25 -7 25 20 c13 11 51 25 85 31 33 7 72 16 87 20 15 5 50 8 78 6 27 -1
50 1 50 4 0 3 38 6 84 6 46 0 82 -3 79 -7z m36 -44 c17 -4 28 -10 25 -15 -3
-5 -17 -6 -31 -3 -16 4 -28 2 -33 -6 -7 -11 -11 -10 -24 3 -9 8 -16 18 -16 21
0 8 40 8 79 0z m-459 -43 c0 -13 -26 -32 -33 -24 -4 3 -14 0 -23 -8 -15 -12
-17 -12 -12 1 2 8 14 16 26 18 12 2 22 8 22 13 0 5 5 9 10 9 6 0 10 -4 10 -9z
m304 -82 c66 -31 84 -45 71 -57 -3 -3 -9 -1 -13 5 -4 7 -38 26 -75 43 -37 18
-67 34 -67 36 0 9 21 2 84 -27z m-304 1 c0 -5 -9 -10 -21 -10 -11 0 -17 5 -14
10 3 6 13 10 21 10 8 0 14 -4 14 -10z m-3562 -12 c-3 -7 -18 -15 -34 -19 l-29
-8 24 19 c26 22 45 26 39 8z m12 -25 c0 -16 -16 -31 -40 -38 -14 -4 -38 -17
-55 -29 -44 -33 -55 -38 -55 -28 0 6 15 20 33 31 17 12 47 32 66 46 34 25 51
31 51 18z m3540 -10 c0 -12 -51 -33 -74 -32 -17 1 -18 2 -3 6 9 2 17 8 17 13
0 5 8 11 18 13 28 8 42 7 42 0z m292 -34 c15 -10 30 -19 33 -19 3 0 11 -5 18
-10 7 -6 29 -24 51 -40 21 -17 33 -30 27 -30 -18 0 -52 19 -81 45 -14 12 -51
30 -82 40 -36 11 -58 23 -58 32 0 19 55 9 92 -18z m73 1 c3 -5 2 -10 -4 -10
-5 0 -13 5 -16 10 -3 6 -2 10 4 10 5 0 13 -4 16 -10z m-3890 -10 c-3 -5 -11
-10 -16 -10 -6 0 -7 5 -4 10 3 6 11 10 16 10 6 0 7 -4 4 -10z m-85 -40 c0 -5
-18 -19 -40 -30 -50 -26 -52 -18 -2 14 44 29 42 29 42 16z m4150 -12 c0 -7
-12 -21 -25 -31 -23 -17 -25 -17 -25 -1 0 16 26 43 43 44 4 0 7 -6 7 -12z
m-1440 -67 c15 -28 15 -28 -37 -27 -27 0 -57 -3 -68 -8 -15 -7 -13 -1 9 22 35
37 79 43 96 13z m-226 -35 c-3 -9 -10 -16 -15 -16 -5 0 -4 9 3 20 14 22 21 20
12 -4z m1481 3 c11 -16 1 -19 -13 -3 -7 8 -8 14 -3 14 5 0 13 -5 16 -11z
m-3965 -24 c-7 -8 -17 -15 -23 -15 -5 0 -2 9 8 20 21 23 35 19 15 -5z m4080
-87 c0 -16 -22 -7 -51 21 -43 43 -35 57 11 20 22 -18 40 -36 40 -41z m-4140
20 c-32 -26 -38 -13 -9 18 15 16 25 21 28 13 2 -7 -6 -21 -19 -31z m105 22
c-3 -5 -11 -10 -16 -10 -6 0 -7 5 -4 10 3 6 11 10 16 10 6 0 7 -4 4 -10z
m-155 -44 c0 -3 -15 -15 -32 -27 l-33 -23 24 27 c22 24 41 35 41 23z m100 -36
c0 -5 -6 -13 -14 -17 -7 -4 -18 -21 -24 -38 -6 -16 -11 -22 -11 -13 -1 9 -6
18 -13 20 -8 3 -3 14 14 31 27 27 48 35 48 17z m1470 -44 c0 -6 9 -22 20 -36
11 -14 20 -40 20 -57 0 -18 5 -33 11 -33 6 0 8 -9 4 -21 -5 -16 -4 -19 5 -14
9 5 10 1 5 -15 -5 -15 -4 -20 4 -16 6 4 11 0 11 -9 0 -11 5 -15 16 -11 12 5
14 1 9 -15 -6 -19 -4 -21 19 -15 25 6 26 5 19 -21 -3 -16 -6 -35 -6 -45 1 -9
-7 -24 -17 -33 -17 -15 -19 -15 -25 4 -3 12 -3 35 0 52 6 26 4 30 -12 27 -13
-2 -19 4 -21 25 -3 24 -7 28 -26 23 -22 -5 -23 -4 -19 45 3 38 -1 56 -15 77
-11 15 -21 36 -23 47 -5 25 -39 32 -55 11 -14 -20 -33 -13 -58 21 l-19 25 24
-8 c36 -12 60 -7 83 16 20 19 22 19 33 3 7 -9 13 -22 13 -27z m2632 -31 c3 4
9 -3 13 -14 3 -12 11 -21 16 -21 5 0 9 -5 9 -10 0 -7 -7 -7 -21 0 -24 13 -41
4 -19 -10 8 -5 12 -12 8 -15 -3 -3 -13 1 -21 9 -11 11 -17 12 -19 4 -2 -6 -10
-8 -16 -4 -19 11 -14 26 8 26 21 0 22 11 5 73 -3 14 1 10 13 -11 10 -18 21
-30 24 -27z m-1489 28 c31 -6 31 -26 1 -32 -10 -2 -22 -8 -26 -14 -5 -8 -13
-5 -27 7 -20 18 -58 15 -46 -3 3 -5 -3 -26 -12 -47 -14 -28 -15 -38 -5 -41 6
-3 12 -15 12 -28 0 -13 6 -26 13 -28 8 -4 8 -8 2 -14 -5 -4 -10 -15 -10 -23 0
-8 -6 -14 -12 -12 -7 1 -13 -5 -13 -13 0 -9 -6 -12 -16 -8 -14 5 -16 2 -10
-23 5 -23 4 -25 -4 -11 -6 9 -17 17 -24 17 -15 0 -26 21 -26 47 0 13 3 13 15
3 12 -10 15 -9 15 4 0 11 5 15 13 11 6 -4 3 1 -8 10 -18 14 -18 18 -4 28 8 7
23 41 33 77 22 79 50 114 86 105 14 -3 38 -9 53 -12z m1423 -85 c14 -24 34
-54 43 -68 22 -32 33 -60 22 -60 -4 0 -13 10 -19 23 -6 12 -11 16 -11 8 -1
-11 -4 -11 -16 -1 -21 18 -19 -2 5 -45 l20 -35 -25 0 c-14 0 -25 5 -25 10 0 6
-7 10 -16 10 -12 0 -15 -6 -11 -20 4 -17 2 -20 -16 -16 -12 3 -16 3 -9 0 6 -3
12 -11 12 -19 0 -7 7 -18 15 -25 9 -7 13 -15 10 -18 -3 -3 2 -16 10 -29 9 -13
11 -23 6 -23 -5 0 -13 5 -16 10 -12 20 -22 10 -17 -17 3 -19 1 -25 -6 -18 -5
6 -12 18 -14 28 -1 10 -6 17 -9 15 -3 -2 -14 4 -24 12 -21 17 -20 14 10 -69 9
-24 14 -56 12 -70 -4 -25 -4 -25 -12 -4 -4 13 -13 19 -21 16 -8 -3 -14 0 -14
7 0 6 -5 8 -10 5 -6 -4 -8 -15 -5 -26 4 -13 2 -19 -9 -19 -9 0 -16 7 -16 16 0
8 -4 13 -9 10 -5 -3 -14 1 -21 9 -16 19 -30 19 -30 0 0 -21 -12 -19 -38 5 -17
16 -22 32 -22 72 0 43 7 64 41 120 22 38 37 72 34 77 -3 5 4 12 15 16 11 3 32
23 47 43 35 48 95 112 105 112 4 0 19 -19 34 -42z m-4026 25 c0 -5 21 -30 46
-58 66 -73 119 -157 143 -227 30 -88 26 -124 -16 -166 -21 -21 -28 -6 -16 33
6 19 7 35 2 35 -5 0 -12 -12 -15 -27 -4 -16 -9 -32 -12 -37 -7 -12 -21 15 -23
44 -1 21 -3 19 -8 -8 -6 -33 -28 -42 -24 -9 2 11 -4 17 -17 17 -22 0 -42 51
-22 58 7 2 12 11 12 20 0 23 -22 0 -37 -41 l-13 -32 6 32 c3 18 2 42 -1 54 -6
19 -8 20 -26 3 -10 -9 -19 -24 -19 -33 0 -9 -5 -23 -11 -31 -11 -16 -9 10 9
112 6 34 6 45 -3 41 -9 -3 -11 5 -8 24 4 22 2 25 -6 13 -10 -13 -12 -13 -20 0
-7 9 -6 17 1 21 6 4 8 11 5 16 -4 6 2 26 12 47 11 20 15 39 10 42 -5 3 -9 1
-9 -4 0 -15 -40 -56 -47 -49 -3 4 1 15 10 25 10 10 17 24 17 30 0 29 79 83 80
55z m1700 -3 c-8 -5 -19 -10 -25 -10 -5 0 -3 5 5 10 8 5 20 10 25 10 6 0 3 -5
-5 -10z m-1240 -40 c6 -11 7 -20 2 -20 -10 0 -32 21 -32 32 0 16 19 8 30 -12z
m1905 -140 c26 -10 56 -63 54 -97 0 -16 -1 -16 -9 2 -5 11 -9 14 -9 8 -1 -7
-10 -13 -22 -13 -19 0 -20 4 -14 39 6 34 4 40 -14 46 -12 3 -21 11 -21 16 0
11 3 11 35 -1z m106 -202 c7 -17 15 -26 17 -20 2 7 12 12 22 12 21 0 36 -33
24 -52 -5 -7 -8 -22 -8 -33 -1 -22 -46 -95 -59 -95 -4 0 -9 6 -11 13 -2 6 -8
27 -14 45 -10 31 -9 33 11 26 21 -6 21 -6 5 13 -20 22 -23 43 -7 43 6 0 8 9 4
23 -4 12 -9 30 -11 40 -9 30 13 18 27 -15z m-1008 -14 c-5 -14 -3 -14 26 1 18
9 35 14 38 12 2 -3 -5 -10 -16 -17 -22 -11 -28 -44 -11 -55 6 -3 13 1 16 9 3
9 12 16 19 16 10 0 10 -9 -1 -42 -7 -24 -17 -59 -22 -78 l-9 -35 -13 30 c-7
17 -12 36 -11 44 2 8 -3 12 -11 8 -21 -8 -44 74 -28 102 13 24 32 29 23 5z
m1977 -84 c0 -5 -2 -10 -4 -10 -3 0 -8 5 -11 10 -3 6 -1 10 4 10 6 0 11 -4 11
-10z m-1843 -17 c4 -65 10 -90 23 -103 42 -42 46 -81 9 -100 -23 -13 -32 -13
-23 1 4 7 0 9 -12 5 -17 -5 -19 0 -20 39 0 24 -7 51 -14 60 -7 8 -8 15 -2 15
5 0 12 7 15 14 4 10 1 13 -9 9 -16 -6 -20 12 -4 22 18 11 10 26 -10 20 -24 -8
-25 -2 -4 19 21 21 49 20 51 -1z m814 7 c5 0 9 -9 9 -20 0 -11 -7 -20 -15 -20
-12 0 -13 -5 -5 -26 7 -19 7 -31 -1 -40 -6 -8 -9 -21 -5 -29 3 -9 2 -14 -3
-11 -14 9 -23 -25 -10 -40 9 -11 8 -14 -4 -14 -8 0 -20 -7 -27 -15 -11 -13
-14 -13 -26 2 -26 35 -10 103 24 103 15 0 22 41 11 61 -12 24 -12 29 6 29 9 0
12 6 8 17 -5 13 -2 15 11 10 10 -4 22 -7 27 -7z m-151 -30 c0 -15 -5 -12 -26
11 -19 22 -19 22 4 10 12 -6 22 -16 22 -21z m-476 -593 c83 -54 106 -60 214
-55 96 5 155 24 175 56 13 19 26 14 20 -8 -3 -12 0 -20 7 -20 17 0 -47 -58
-73 -66 -12 -3 -26 -10 -32 -14 -23 -18 -149 -31 -175 -19 -8 4 -33 12 -55 18
-23 6 -50 20 -62 31 -12 11 -27 20 -33 20 -6 0 -8 5 -5 11 4 6 -2 17 -13 24
-18 13 -37 55 -25 55 3 0 29 -15 57 -33z m-588 -351 c15 -15 19 -46 6 -46 -13
0 -43 40 -37 50 8 13 14 12 31 -4z m144 -99 c8 -3 2 -6 -14 -6 -16 -1 -38 -8
-48 -18 -27 -24 -23 3 5 31 17 17 24 20 32 10 6 -6 17 -14 25 -17z m50 -57 c0
-11 -6 -20 -13 -20 -19 0 -27 10 -20 26 8 21 33 17 33 -6z m1070 -259 c0 -9
-61 -41 -79 -41 -23 0 -10 22 22 35 37 17 57 19 57 6z m-540 -281 c0 -5 -5
-10 -11 -10 -5 0 -7 5 -4 10 3 6 8 10 11 10 2 0 4 -4 4 -10z"/>
<path d="M3502 5061 c-6 -17 -7 -31 -3 -31 8 0 22 52 16 58 -1 2 -7 -11 -13
-27z"/>
<path d="M1940 4620 c0 -5 15 -10 33 -10 24 0 28 3 17 10 -20 13 -50 13 -50 0z"/>
<path d="M1720 3965 c0 -9 6 -12 15 -9 8 4 15 10 15 15 0 5 -7 9 -15 9 -8 0
-15 -7 -15 -15z"/>
<path d="M1735 3925 c-8 -14 -22 -37 -31 -51 -15 -25 -15 -26 8 -18 12 4 28
14 35 23 8 10 12 12 13 4 0 -7 4 -13 8 -13 4 0 9 16 9 36 l1 37 -24 -29 -25
-29 16 33 c18 38 12 43 -10 7z"/>
<path d="M1742 3840 c-13 -11 -22 -24 -20 -28 1 -5 13 4 26 20 27 33 26 35 -6
8z"/>
<path d="M4240 3561 c0 -5 5 -13 10 -16 6 -3 10 -2 10 4 0 5 -4 13 -10 16 -5
3 -10 2 -10 -4z"/>
<path d="M4539 5782 c-55 -21 -111 -60 -103 -73 3 -5 21 4 40 21 38 33 94 42
94 14 0 -8 5 -12 10 -9 6 3 10 15 10 26 0 20 1 20 31 -1 36 -26 42 -23 26 10
-15 31 -47 34 -108 12z"/>
<path d="M4366 5685 c-11 -8 -17 -18 -13 -21 3 -3 16 3 28 15 26 24 14 28 -15
6z"/>
<path d="M6513 5532 c-6 -4 -11 -23 -10 -41 l2 -35 -195 -97 c-107 -54 -203
-98 -212 -99 -9 0 -20 9 -23 20 -7 23 -24 25 -49 7 -17 -12 -15 -20 34 -118
29 -57 53 -105 55 -107 1 -1 14 2 28 9 22 10 24 15 16 36 -5 14 -7 29 -3 34 3
5 41 27 84 49 76 38 80 39 90 21 19 -36 10 -66 -42 -156 -28 -50 -60 -106 -71
-126 l-19 -36 32 -64 c39 -78 34 -73 58 -60 14 7 20 21 20 39 -1 40 9 65 63
155 27 45 52 88 56 95 7 11 15 10 47 -3 60 -25 121 -13 167 34 71 71 65 141
-25 321 -60 119 -76 139 -103 122z m75 -207 c20 -45 15 -109 -11 -133 -61 -58
-134 -47 -175 26 l-23 41 88 45 c48 25 93 45 99 45 6 1 16 -10 22 -24z"/>
<path d="M3231 5326 c-6 -16 -20 -41 -31 -56 -23 -33 -25 -41 -7 -34 20 7 59
81 54 102 -3 13 -7 10 -16 -12z"/>
<path d="M3269 5313 c-6 -21 -24 -54 -39 -73 -43 -56 -46 -64 -21 -50 12 6 31
26 41 43 10 18 23 37 28 42 13 15 21 65 11 70 -4 3 -13 -12 -20 -32z"/>
<path d="M3064 5205 c-12 -8 -24 -11 -28 -8 -3 3 -6 -1 -6 -9 0 -9 -7 -19 -16
-22 -9 -4 -14 -9 -11 -12 8 -9 74 33 81 51 7 19 5 19 -20 0z"/>
<path d="M3215 5170 c-22 -23 -25 -30 -12 -30 16 0 57 37 57 52 0 16 -17 8
-45 -22z"/>
<path d="M1314 5123 l-20 -27 -185 13 c-101 7 -229 15 -284 18 l-100 6 -18
-37 c-9 -20 -17 -38 -17 -40 0 -3 94 -86 209 -186 115 -100 212 -189 215 -197
3 -8 3 -25 0 -38 -5 -20 -1 -25 20 -31 15 -3 28 -5 30 -3 7 9 67 161 64 164
-2 1 -13 7 -24 13 -18 10 -24 8 -36 -10 l-15 -22 -39 31 c-21 17 -50 43 -63
57 l-25 26 26 63 c25 62 26 62 69 65 24 2 64 1 87 -3 40 -6 43 -8 38 -31 -5
-20 -2 -26 20 -34 15 -6 28 -9 29 -8 1 2 21 50 44 107 41 99 42 105 25 118
-24 18 -27 17 -50 -14z m-337 -123 c21 0 22 -1 7 -37 -9 -21 -19 -41 -22 -45
-4 -3 -32 16 -62 44 l-55 50 55 -6 c30 -3 65 -6 77 -6z"/>
<path d="M3980 5119 c-1 -17 54 -99 66 -99 18 0 18 4 -6 32 -11 12 -29 34 -39
48 -11 14 -20 22 -21 19z"/>
<path d="M4020 5005 c1 -17 29 -49 37 -41 4 3 -3 16 -15 29 -12 12 -22 17 -22
12z"/>
<path d="M4820 4824 c-43 -15 -219 -98 -216 -101 2 -3 19 3 38 13 18 9 49 21
68 27 36 9 269 16 267 7 -1 -3 11 -18 27 -33 25 -25 27 -33 21 -65 -4 -20 -7
-49 -7 -64 1 -15 -3 -30 -8 -33 -6 -3 -7 2 -4 12 3 10 -4 1 -15 -19 -12 -20
-25 -40 -31 -43 -6 -4 -7 -11 -4 -17 4 -6 3 -8 -3 -5 -13 8 -86 -67 -76 -78 5
-4 3 -5 -3 -2 -6 4 -22 -5 -35 -19 -25 -27 -107 -87 -124 -91 -5 -1 -28 -7
-50 -12 -22 -6 -66 -11 -98 -11 l-59 0 7 -29 c5 -25 2 -33 -20 -47 -14 -9 -23
-19 -21 -22 3 -2 -1 -11 -9 -19 -8 -8 -15 -30 -15 -49 0 -56 31 -167 54 -194
17 -20 18 -22 2 -10 -19 15 -19 14 -3 -16 9 -17 14 -34 11 -37 -8 -8 6 -48 15
-43 4 3 5 -11 3 -31 -3 -23 -1 -33 6 -29 5 3 9 0 9 -7 -3 -29 25 -98 44 -108
19 -10 69 -100 69 -126 0 -6 -7 -13 -15 -15 -11 -2 -7 -11 16 -36 17 -18 35
-29 41 -26 6 4 8 2 5 -3 -8 -13 12 -73 24 -73 16 0 24 -3 37 -17 8 -7 18 -10
24 -7 6 4 8 3 5 -2 -3 -6 8 -57 24 -114 17 -58 33 -114 36 -125 2 -11 7 -27
10 -35 3 -8 7 -25 9 -37 6 -49 15 -63 40 -63 21 0 24 -5 24 -35 0 -26 3 -33
15 -29 8 4 15 11 15 18 0 6 20 29 45 49 25 21 45 47 45 57 0 11 5 20 11 20 5
0 8 4 4 10 -5 8 49 44 59 38 2 -2 14 9 26 24 20 27 21 29 4 75 -13 37 -17 79
-16 178 1 72 3 137 5 145 2 8 7 33 12 55 4 22 18 61 31 87 13 26 27 64 31 85
9 45 6 175 -5 183 -4 3 -8 21 -8 40 -8 218 -18 311 -36 333 -13 14 -18 31 -15
47 3 14 -1 43 -10 65 -8 22 -19 58 -24 80 -12 49 -26 65 -47 58 -11 -3 -13 -2
-6 4 20 14 8 68 -28 134 -37 65 -66 98 -104 117 -25 13 -103 23 -124 16z"/>
<path d="M3727 4805 c-11 -8 -14 -16 -8 -20 15 -9 9 -55 -6 -55 -18 0 -16 -27
2 -34 22 -8 19 -26 -4 -26 -26 0 -35 -16 -14 -24 13 -6 14 -9 5 -15 -16 -9 -7
-55 14 -72 8 -6 15 -23 15 -38 1 -21 2 -22 6 -6 3 11 14 32 25 48 11 15 15 27
9 27 -6 0 -8 12 -4 32 4 22 3 29 -5 24 -16 -9 -16 38 -1 66 8 14 8 23 1 27 -6
3 -12 23 -14 43 -3 33 -5 35 -21 23z"/>
<path d="M6853 4803 c-19 -4 -23 -11 -23 -38 0 -19 -4 -36 -9 -39 -14 -9 -389
-48 -425 -44 -21 2 -34 10 -41 26 -12 28 -65 32 -65 5 1 -23 36 -193 42 -198
13 -13 48 10 53 35 3 16 13 34 21 40 14 13 232 43 268 38 14 -2 -32 -37 -152
-117 -95 -62 -172 -118 -172 -125 0 -26 28 -35 216 -72 107 -21 194 -41 194
-44 0 -3 -64 -23 -142 -44 l-141 -39 -22 26 c-23 30 -52 35 -62 11 -5 -14 31
-222 41 -231 2 -2 16 -1 31 3 19 5 25 11 22 25 -11 42 11 51 296 129 133 37
154 38 169 5 9 -20 16 -23 37 -18 14 3 27 6 28 7 4 3 -30 152 -35 158 -4 4
-99 25 -211 47 -112 23 -206 42 -208 44 -2 2 78 57 177 122 154 101 181 122
176 139 -3 12 -10 51 -17 89 -7 37 -15 66 -18 66 -3 -1 -16 -4 -28 -6z"/>
<path d="M2820 4746 c0 -2 9 -6 20 -9 11 -3 18 -1 14 4 -5 9 -34 13 -34 5z"/>
<path d="M990 4573 c0 -21 9 -34 35 -51 29 -19 35 -28 35 -59 0 -63 -22 -164
-36 -170 -13 -5 -325 47 -405 68 -38 9 -53 28 -43 54 4 9 -3 16 -21 21 -14 3
-28 4 -31 2 -7 -7 -47 -228 -43 -233 2 -2 16 -6 32 -10 23 -6 27 -4 27 13 0
36 25 40 133 21 56 -10 145 -25 197 -34 119 -21 144 -32 148 -67 2 -18 10 -27
28 -31 29 -5 23 -22 64 208 16 94 33 182 36 197 5 25 0 30 -65 63 -39 19 -75
35 -81 35 -5 0 -10 -12 -10 -27z"/>
<path d="M3462 4534 c2 -13 13 -20 37 -22 24 -3 32 0 29 10 -3 7 -13 13 -24
13 -10 1 -25 4 -32 9 -10 6 -13 3 -10 -10z"/>
<path d="M3973 4528 c-38 -10 -44 -28 -10 -28 24 1 63 25 50 33 -4 2 -23 0
-40 -5z"/>
<path d="M3300 4433 c0 -17 17 -30 49 -41 56 -20 59 -13 9 18 -51 32 -58 35
-58 23z"/>
<path d="M1975 4402 c-13 -13 -3 -22 25 -22 17 0 30 4 30 9 0 10 -47 21 -55
13z"/>
<path d="M2040 4380 c0 -11 61 -30 74 -22 10 6 -9 17 -46 26 -16 4 -28 2 -28
-4z"/>
<path d="M5610 4354 c0 -11 34 -33 49 -34 11 0 10 5 -4 20 -17 19 -45 27 -45
14z"/>
<path d="M5576 4321 c14 -13 64 -23 64 -12 0 11 -25 21 -53 21 -12 0 -17 -4
-11 -9z"/>
<path d="M4177 4289 c-22 -11 -36 -23 -33 -26 8 -8 86 27 86 39 0 12 -11 9
-53 -13z"/>
<path d="M5552 4283 c-29 -6 -19 -23 14 -23 15 0 24 6 24 15 0 8 -3 14 -7 14
-5 -1 -18 -4 -31 -6z"/>
<path d="M5580 4165 c0 -10 10 -15 28 -15 26 1 26 1 8 15 -25 19 -36 19 -36 0z"/>
<path d="M5690 4164 c0 -11 45 -43 60 -44 9 0 3 10 -15 25 -30 24 -45 31 -45
19z"/>
<path d="M828 4009 c-21 -10 -48 -35 -62 -55 -23 -35 -25 -35 -35 -15 -27 50
-129 67 -187 32 -38 -23 -72 -91 -75 -151 -1 -25 -2 -98 -1 -162 l2 -118 30 0
c27 0 30 3 30 29 0 28 3 30 53 36 28 3 135 5 237 3 l185 -3 3 -27 c3 -24 8
-28 34 -28 l30 0 -4 178 c-3 166 -4 180 -28 220 -13 24 -38 52 -56 62 -40 26
-108 25 -156 -1z m147 -134 c23 -23 31 -56 26 -110 -2 -30 -19 -35 -118 -35
l-93 0 0 35 c0 47 22 98 51 119 37 25 105 21 134 -9z m-294 -18 c22 -17 37
-47 39 -82 4 -56 6 -55 -95 -55 l-95 0 0 46 c0 61 40 104 97 104 21 0 45 -6
54 -13z"/>
<path d="M3972 3970 c7 -11 19 -20 27 -20 11 0 10 5 -4 20 -10 11 -22 20 -27
20 -4 0 -3 -9 4 -20z"/>
<path d="M6410 3880 c0 -16 4 -30 10 -30 5 0 2 -19 -6 -42 -52 -145 22 -269
161 -270 74 -1 112 25 186 128 34 47 70 94 81 104 29 27 65 30 93 8 55 -43 16
-148 -60 -162 -30 -6 -35 -11 -35 -35 l0 -27 84 -3 83 -2 7 68 c17 160 -5 225
-85 257 -99 40 -171 10 -253 -104 -95 -131 -141 -156 -191 -105 -57 56 -10
170 73 177 32 3 37 7 40 29 3 22 -2 27 -29 33 -17 3 -60 6 -95 6 l-64 0 0 -30z"/>
<path d="M2284 3595 c4 -16 9 -45 12 -62 4 -18 10 -33 14 -33 10 0 -7 86 -20
108 -9 14 -10 11 -6 -13z"/>
<path d="M6373 2435 c-20 -8 -41 -32 -62 -68 -38 -66 -39 -79 -6 -71 32 8 175
-72 175 -98 0 -30 18 -20 40 22 26 52 25 60 -7 55 -17 -3 -36 1 -47 10 -17 12
-18 18 -8 40 35 76 -15 139 -85 110z m38 -45 c22 -12 26 -58 5 -66 -16 -6 -76
22 -76 36 0 8 38 40 48 40 2 0 12 -5 23 -10z"/>
<path d="M1114 2395 c8 -21 -140 -107 -171 -100 -29 7 -29 -6 -1 -56 24 -44
35 -49 40 -18 2 11 15 28 30 37 28 16 28 16 59 -21 37 -45 74 -49 109 -12 18
19 22 32 17 59 -7 46 -55 126 -74 126 -9 0 -13 -6 -9 -15z m44 -94 c7 -47 -40
-67 -73 -32 -17 19 -16 21 16 40 40 24 53 23 57 -8z"/>
<path d="M3080 2330 c0 -11 -7 -20 -15 -20 -8 0 -15 -7 -15 -15 0 -8 4 -15 9
-15 5 0 11 -10 14 -22 3 -20 5 -19 12 10 4 17 14 32 21 32 17 0 17 10 0 33
-17 22 -26 22 -26 -3z"/>
<path d="M1899 2250 c-5 -3 0 -14 11 -23 18 -15 20 -30 20 -132 0 -106 -2
-115 -21 -126 -39 -21 -4 -30 106 -27 l109 3 8 30 c10 37 -6 55 -24 26 -10
-17 -23 -21 -65 -21 -48 0 -52 2 -57 28 -11 53 -3 67 42 70 31 2 44 -1 48 -12
3 -9 12 -16 20 -16 10 0 14 13 14 45 0 47 -11 56 -36 30 -18 -18 -70 -20 -80
-3 -4 6 -7 30 -7 52 l0 41 49 3 c37 3 51 -1 61 -14 7 -10 16 -14 20 -11 12 13
13 46 1 53 -14 9 -205 12 -219 4z"/>
<path d="M2250 2252 c-34 -11 -50 -35 -50 -78 0 -46 10 -59 88 -114 60 -43 55
-94 -9 -88 -27 2 -37 10 -49 35 -23 50 -42 42 -38 -14 l3 -48 67 -3 c61 -3 70
-1 93 22 27 27 33 72 15 106 -6 11 -37 38 -70 60 -62 42 -74 66 -44 90 21 18
66 2 79 -28 17 -37 35 -27 35 21 l0 43 -52 1 c-29 0 -60 -2 -68 -5z"/>
<path d="M2420 2218 c0 -42 10 -48 31 -19 8 11 29 22 47 25 l32 4 0 -129 c0
-108 -2 -129 -15 -129 -8 0 -15 -7 -15 -15 0 -12 13 -15 60 -15 47 0 60 3 60
15 0 8 -7 15 -15 15 -13 0 -15 21 -15 128 l0 128 35 -4 c22 -3 40 -12 46 -23
16 -30 29 -22 29 19 l0 37 -140 0 -140 0 0 -37z"/>
<path d="M4668 2232 c-41 -27 -51 -54 -18 -45 19 5 20 0 20 -106 0 -92 -3
-111 -15 -111 -8 0 -15 -7 -15 -15 0 -12 13 -15 60 -15 61 0 79 14 38 29 -13
5 -22 11 -20 15 6 16 1 276 -5 275 -5 -1 -25 -13 -45 -27z"/>
<path d="M4909 2249 c-49 -19 -68 -93 -36 -143 20 -29 75 -43 106 -27 28 15
28 -1 0 -45 -13 -21 -41 -43 -77 -61 -46 -22 -53 -28 -34 -31 57 -9 152 52
178 115 8 18 14 55 14 83 0 40 -5 55 -27 80 -31 34 -81 46 -124 29z m70 -33
c23 -28 31 -75 15 -91 -35 -34 -84 -6 -84 49 0 50 41 75 69 42z"/>
<path d="M5175 2251 c-51 -21 -73 -88 -46 -138 16 -31 67 -49 102 -36 66 25
11 -65 -60 -98 -27 -13 -50 -27 -51 -31 0 -15 51 -8 88 12 83 44 112 89 112
174 0 53 -3 61 -34 92 -35 35 -68 42 -111 25z m69 -40 c10 -11 19 -34 19 -52
2 -28 -3 -35 -25 -43 -37 -13 -68 14 -68 60 0 50 42 70 74 35z"/>
<path d="M5386 2240 c-15 -58 -16 -70 -2 -70 7 0 20 9 27 21 12 17 23 20 75
17 l61 -3 -54 -124 c-29 -68 -53 -128 -53 -133 0 -5 12 -8 26 -6 24 3 30 14
66 113 55 150 68 195 60 196 -4 0 -51 1 -105 2 -79 2 -98 -1 -101 -13z"/>
<path d="M6236 2235 c-22 -34 -21 -38 24 -105 22 -32 40 -63 40 -69 0 -8 -23
-4 -147 24 -17 4 -26 -2 -38 -25 -17 -34 -12 -58 10 -40 9 8 30 -4 84 -47 39
-32 71 -66 71 -75 0 -26 15 -22 39 8 30 38 27 55 -6 49 -22 -4 -37 3 -68 31
l-40 36 30 -7 c17 -4 46 -11 65 -16 44 -11 80 -12 80 -1 0 5 -18 37 -41 72
-22 34 -38 64 -36 66 8 8 97 -57 97 -71 0 -26 18 -17 45 22 32 48 32 56 -2 49
-38 -7 -167 70 -171 102 -4 29 -16 28 -36 -3z"/>
<path d="M3161 2208 c1 -18 3 -25 6 -15 2 9 8 17 13 17 5 0 7 7 4 15 -11 27
-24 16 -23 -17z"/>
<path d="M1237 2213 c-4 -3 -7 -13 -7 -22 -1 -23 -136 -114 -161 -108 -31 8
-32 -9 -2 -52 28 -40 51 -49 45 -18 -2 13 45 57 62 57 13 0 5 -50 -14 -94 -20
-43 -20 -47 -4 -71 18 -27 41 -29 36 -3 -1 8 7 36 18 62 18 40 25 46 50 46 36
0 70 31 70 63 0 13 -18 52 -40 85 -41 65 -43 66 -53 55z m53 -120 c0 -7 -12
-20 -26 -29 -24 -16 -26 -16 -47 5 -19 19 -20 23 -7 31 8 5 24 15 35 24 18 14
21 13 33 -1 6 -9 12 -23 12 -30z"/>
<path d="M1390 1978 c-1 -31 -124 -133 -158 -130 -30 2 -28 -4 33 -82 52 -67
63 -73 96 -56 26 14 24 30 -3 30 -12 0 -35 12 -50 27 l-28 27 22 23 c12 13 27
23 33 23 19 0 48 -38 42 -54 -10 -26 10 -27 39 -3 26 23 27 51 0 41 -7 -3 -21
7 -31 22 -18 27 -18 28 11 51 l29 23 23 -25 c12 -15 22 -37 22 -51 0 -29 11
-31 34 -5 16 18 14 22 -39 87 -64 78 -75 86 -75 52z"/>
<path d="M6001 1918 c-54 -68 -60 -83 -33 -83 26 0 152 -105 152 -126 0 -43
23 -25 113 88 18 22 18 25 3 49 -19 27 -40 23 -31 -6 4 -12 -4 -29 -22 -49
l-28 -31 -29 26 -28 25 23 25 c13 13 29 22 36 20 21 -9 15 19 -10 42 -29 27
-37 28 -37 2 0 -12 -7 -32 -16 -45 l-16 -25 -29 21 c-16 11 -29 26 -29 33 0
18 43 56 63 56 20 0 22 11 5 28 -21 21 -35 13 -87 -50z"/>
<path d="M1543 1788 c4 -19 -7 -33 -61 -78 -43 -35 -73 -53 -89 -52 -31 2 -29
-8 10 -46 35 -34 50 -33 41 2 -3 16 5 28 31 49 20 16 39 27 41 24 3 -2 -7 -30
-21 -62 -41 -94 -35 -101 59 -60 31 14 61 25 67 25 22 0 -56 -78 -78 -79 -31
-1 -29 -11 10 -49 39 -38 47 -39 47 -11 0 30 109 162 127 154 28 -10 35 7 12
31 -28 30 -32 30 -117 -6 -39 -16 -73 -30 -76 -30 -3 0 10 37 29 82 l35 82
-22 23 c-28 30 -52 30 -45 1z"/>
<path d="M5882 1777 c-37 -38 -40 -50 -13 -45 11 2 31 -8 45 -21 l26 -25 -37
-38 -37 -38 -27 26 c-17 16 -25 32 -22 45 8 28 -9 23 -45 -14 -37 -38 -39 -47
-14 -47 22 0 142 -119 142 -141 0 -30 14 -29 47 3 35 34 45 65 16 54 -10 -4
-26 3 -45 21 l-28 27 37 38 37 38 27 -26 c17 -16 25 -32 22 -45 -8 -28 19 -24
50 9 32 33 36 57 8 49 -26 -6 -147 115 -143 143 5 29 -10 25 -46 -13z"/>
<path d="M1784 1563 c7 -23 -109 -164 -128 -157 -30 11 -24 -16 9 -45 41 -36
60 -40 52 -11 -8 31 109 170 132 156 5 -4 12 -2 16 4 7 11 -54 69 -73 70 -8 0
-11 -7 -8 -17z"/>
<path d="M1893 1470 c3 -13 -3 -31 -17 -48 -84 -102 -96 -153 -45 -196 17 -14
39 -26 50 -26 10 0 19 -6 19 -13 0 -12 49 -47 65 -47 4 0 5 10 2 21 -7 28 97
173 118 165 29 -11 20 20 -14 46 -45 34 -51 34 -51 2 0 -34 -84 -144 -111
-144 -34 0 -59 19 -59 45 0 37 80 144 108 144 31 1 28 14 -12 45 -42 31 -60
33 -53 6z"/>
<path d="M5492 1438 c-67 -50 -86 -77 -49 -70 10 2 37 -25 71 -71 43 -57 54
-78 49 -97 -8 -31 7 -25 86 35 72 55 75 59 61 85 -14 26 -28 26 -32 -1 -2 -12
-17 -32 -34 -45 l-30 -24 -24 32 -23 31 24 18 c13 10 32 16 42 13 21 -7 22 14
1 44 -18 26 -34 29 -34 5 0 -10 -12 -26 -26 -36 -24 -18 -25 -18 -44 5 -11 13
-19 28 -20 35 0 19 49 52 70 46 11 -3 20 -2 20 1 0 13 -21 46 -28 46 -5 0 -40
-24 -80 -52z"/>
<path d="M2136 1311 c-4 -5 -3 -17 0 -26 9 -23 -82 -155 -106 -155 -34 0 -31
-19 7 -43 44 -28 56 -26 47 8 -4 18 2 36 25 67 35 47 37 41 21 -57 -6 -36 -6
-63 0 -69 5 -5 34 11 74 43 36 28 66 49 66 46 0 -20 -53 -105 -65 -105 -25 0
-17 -19 18 -40 41 -25 60 -26 53 -2 -9 28 60 173 84 179 29 8 24 29 -10 43
-28 12 -33 10 -95 -40 -36 -29 -67 -51 -69 -49 -2 2 0 29 5 59 14 102 12 118
-20 135 -17 8 -32 11 -35 6z"/>
<path d="M5300 1303 c-38 -14 -130 -77 -127 -87 2 -6 10 -10 18 -9 8 2 35 -30
62 -73 35 -57 46 -81 41 -100 -8 -31 -3 -30 62 6 111 64 143 121 108 195 -28
60 -103 91 -164 68z m78 -49 c26 -18 52 -65 52 -94 0 -22 -50 -80 -70 -80 -6
0 -33 35 -61 78 l-49 77 21 18 c26 21 77 22 107 1z"/>
<path d="M5031 1160 c-12 -7 -12 -26 0 -119 9 -62 11 -120 7 -132 -12 -31 -3
-35 38 -15 l37 17 -22 20 c-30 28 -27 63 5 78 23 10 30 9 49 -9 14 -13 21 -29
18 -41 -7 -24 -2 -24 47 1 43 22 52 40 21 40 -10 0 -52 35 -94 79 -87 91 -89
92 -106 81z m59 -111 c0 -5 -7 -9 -15 -9 -9 0 -15 9 -15 21 0 18 2 19 15 9 8
-7 15 -16 15 -21z"/>
<path d="M2540 1086 c0 -8 5 -16 10 -18 16 -5 -67 -178 -85 -178 -30 0 -14
-27 22 -38 44 -13 57 -8 41 18 -10 16 -8 28 12 67 l25 48 3 -82 c2 -56 7 -83
15 -83 6 0 37 25 68 56 l57 57 -16 -56 c-11 -36 -23 -58 -34 -61 -31 -8 -20
-24 29 -40 59 -20 56 -21 48 13 -9 42 33 182 57 189 23 6 23 19 -1 32 -35 18
-51 11 -111 -52 l-59 -63 -1 90 0 91 -33 12 c-43 15 -47 15 -47 -2z"/>
<path d="M4805 1052 c-31 -6 -109 -34 -120 -44 -6 -5 -2 -11 12 -14 26 -7 89
-160 78 -193 -8 -26 8 -27 59 -6 39 16 48 35 17 35 -12 0 -23 11 -30 31 -20
57 -1 58 76 6 35 -24 47 -27 69 -20 33 11 44 33 17 33 -11 0 -38 14 -61 32
-33 26 -40 36 -36 55 14 55 -25 96 -81 85z m23 -44 c19 -19 14 -56 -9 -68 -11
-7 -22 -10 -23 -8 -12 16 -27 69 -21 77 8 15 38 14 53 -1z"/>
<path d="M2850 975 c0 -8 5 -15 11 -15 12 0 9 -17 -23 -122 -12 -42 -25 -68
-34 -68 -8 0 -14 -6 -14 -14 0 -9 28 -21 78 -35 98 -26 100 -26 114 4 14 31 6
40 -19 24 -13 -7 -34 -9 -57 -5 -30 6 -36 11 -32 27 4 10 9 28 12 39 4 16 11
19 32 14 15 -4 32 -13 38 -20 6 -8 14 -14 17 -14 4 0 27 55 27 67 0 2 -17 1
-37 -2 -55 -8 -68 4 -54 48 11 34 13 35 44 26 18 -5 39 -19 49 -31 l16 -23 7
28 c4 15 5 31 1 34 -6 6 -152 52 -168 53 -5 0 -8 -7 -8 -15z"/>
<path d="M4566 979 c-114 -19 -163 -147 -87 -228 37 -39 84 -47 156 -26 l57
16 -7 45 c-4 28 -2 50 5 59 17 21 -2 25 -55 11 -53 -13 -70 -33 -33 -38 18 -2
24 -10 26 -35 3 -31 2 -33 -31 -33 -70 0 -124 85 -96 152 21 51 77 62 114 23
14 -16 26 -22 30 -15 7 12 -13 81 -23 79 -4 -1 -29 -5 -56 -10z"/>
<path d="M3074 918 c-4 -6 -1 -14 7 -18 10 -7 10 -23 0 -90 -15 -98 -19 -110
-38 -110 -8 0 -13 -6 -11 -12 6 -16 143 -40 185 -33 48 8 93 65 93 117 0 49
-29 100 -67 117 -44 20 -162 40 -169 29z m137 -48 c34 -19 50 -64 40 -112 -13
-55 -44 -80 -91 -72 -19 3 -37 8 -39 10 -2 2 2 44 10 94 12 84 14 90 37 90 13
0 32 -5 43 -10z"/>
<path d="M3380 866 c0 -9 5 -16 11 -16 8 0 10 -19 5 -62 -13 -115 -18 -138
-32 -138 -8 0 -14 -6 -14 -14 0 -10 16 -15 51 -18 54 -3 71 6 46 25 -13 10
-14 25 -4 105 7 64 15 92 24 92 7 0 13 7 13 15 0 8 -8 15 -19 15 -10 0 -33 3
-50 6 -24 5 -31 3 -31 -10z"/>
<path d="M4071 871 c-12 -8 -12 -11 1 -24 19 -19 44 -190 29 -195 -15 -5 -14
-32 2 -31 6 0 48 6 92 12 l80 12 3 38 c4 42 -13 50 -28 13 -6 -18 -18 -25 -47
-28 -21 -3 -39 -5 -40 -4 -1 1 -8 44 -15 96 -9 73 -9 95 0 98 7 2 12 8 12 13
0 12 -71 12 -89 0z"/>
<path d="M3570 838 c-66 -44 -73 -153 -14 -209 21 -20 36 -24 86 -24 53 0 62
3 85 29 35 41 15 58 -27 22 -39 -32 -61 -33 -97 -2 -24 21 -28 31 -28 79 0 73
22 99 79 95 33 -2 43 -8 54 -30 16 -35 32 -36 33 -3 1 14 2 33 3 42 1 15 -10
18 -69 21 -60 3 -75 0 -105 -20z"/>
<path d="M3876 848 c-3 -7 -17 -57 -32 -111 -15 -55 -33 -101 -41 -104 -7 -3
-13 -11 -13 -19 0 -10 12 -14 40 -14 28 0 40 4 40 14 0 8 -4 16 -10 18 -6 2
-6 15 -2 33 7 24 14 31 40 33 27 3 34 -1 42 -24 8 -19 8 -30 0 -38 -20 -20 -9
-27 42 -24 49 3 78 23 43 30 -11 2 -32 41 -59 108 -34 85 -46 106 -64 108 -12
2 -24 -3 -26 -10z m34 -104 c0 -6 -7 -11 -15 -11 -16 0 -18 7 -9 32 5 13 8 14
15 3 5 -7 9 -18 9 -24z"/>
</g>
</svg>
